<svg width="122" height="30" viewBox="0 0 122 30" fill="none" xmlns="http://www.w3.org/2000/svg">
<path d="M0.559023 24.52C1.46569 23.8 1.87902 23.4667 1.79902 23.52C4.41236 21.36 6.46569 19.5867 7.95902 18.2C9.47902 16.8133 10.759 15.36 11.799 13.84C12.839 12.32 13.359 10.84 13.359 9.4C13.359 8.30666 13.1057 7.45333 12.599 6.84C12.0924 6.22666 11.3324 5.92 10.319 5.92C9.30569 5.92 8.50569 6.30666 7.91902 7.08C7.35902 7.82667 7.07902 8.89333 7.07902 10.28H0.479023C0.532357 8.01333 1.01236 6.12 1.91902 4.6C2.85236 3.08 4.06569 1.96 5.55902 1.24C7.07902 0.519998 8.75902 0.159998 10.599 0.159998C13.7724 0.159998 16.159 0.973331 17.759 2.6C19.3857 4.22667 20.199 6.34667 20.199 8.96C20.199 11.8133 19.2257 14.4667 17.279 16.92C15.3324 19.3467 12.8524 21.72 9.83902 24.04H20.639V29.6H0.559023V24.52ZM23.6506 15C23.6506 10.4133 24.5306 6.8 26.2906 4.16C28.0773 1.52 30.9439 0.199997 34.8906 0.199997C38.8373 0.199997 41.6906 1.52 43.4506 4.16C45.2373 6.8 46.1306 10.4133 46.1306 15C46.1306 19.64 45.2373 23.28 43.4506 25.92C41.6906 28.56 38.8373 29.88 34.8906 29.88C30.9439 29.88 28.0773 28.56 26.2906 25.92C24.5306 23.28 23.6506 19.64 23.6506 15ZM39.4106 15C39.4106 12.3067 39.1173 10.24 38.5306 8.8C37.9439 7.33333 36.7306 6.6 34.8906 6.6C33.0506 6.6 31.8373 7.33333 31.2506 8.8C30.6639 10.24 30.3706 12.3067 30.3706 15C30.3706 16.8133 30.4773 18.32 30.6906 19.52C30.9039 20.6933 31.3306 21.6533 31.9706 22.4C32.6373 23.12 33.6106 23.48 34.8906 23.48C36.1706 23.48 37.1306 23.12 37.7706 22.4C38.4373 21.6533 38.8773 20.6933 39.0906 19.52C39.3039 18.32 39.4106 16.8133 39.4106 15ZM49.7443 15C49.7443 10.4133 50.6243 6.8 52.3843 4.16C54.171 1.52 57.0377 0.199997 60.9843 0.199997C64.931 0.199997 67.7843 1.52 69.5443 4.16C71.331 6.8 72.2243 10.4133 72.2243 15C72.2243 19.64 71.331 23.28 69.5443 25.92C67.7843 28.56 64.931 29.88 60.9843 29.88C57.0377 29.88 54.171 28.56 52.3843 25.92C50.6243 23.28 49.7443 19.64 49.7443 15ZM65.5043 15C65.5043 12.3067 65.211 10.24 64.6243 8.8C64.0377 7.33333 62.8243 6.6 60.9843 6.6C59.1443 6.6 57.931 7.33333 57.3443 8.8C56.7577 10.24 56.4643 12.3067 56.4643 15C56.4643 16.8133 56.571 18.32 56.7843 19.52C56.9977 20.6933 57.4243 21.6533 58.0643 22.4C58.731 23.12 59.7043 23.48 60.9843 23.48C62.2643 23.48 63.2243 23.12 63.8643 22.4C64.531 21.6533 64.971 20.6933 65.1843 19.52C65.3977 18.32 65.5043 16.8133 65.5043 15ZM90.1581 30L83.3581 20.64V30H76.5181V0.4H83.3581V16.76L90.1181 7.68H98.5581L89.2781 18.88L98.6381 30H90.1581ZM121.525 19.08H114.565V26.2H108.085V19.08H101.125V12.96H108.085V5.8H114.565V12.96H121.525V19.08Z" fill="#FF8B00"/>
</svg>
