<svg width="284" height="93" viewBox="0 0 284 93" fill="none" xmlns="http://www.w3.org/2000/svg">
<rect x="0.892639" y="3.98364" width="281.059" height="88.1219" rx="13.3014" transform="rotate(-0.712402 0.892639 3.98364)" fill="#090909"/>
<path d="M65.8752 48.5756C65.8844 44.852 68.1522 41.3007 71.7952 39.3051C69.4462 36.4763 65.5487 34.7126 61.5158 34.6537C57.211 34.3168 53.0749 36.9843 50.8837 37.0116C48.6502 37.0394 45.2493 34.8947 41.6172 35.0045C36.8836 35.1957 32.4981 37.5791 30.2388 41.1883C25.3787 48.6654 29.2082 59.518 34.0266 65.4532C36.4366 68.3589 39.2512 71.6031 42.8794 71.4417C46.4296 71.2701 47.7333 69.4222 52.0206 69.3689C56.2681 69.3161 57.537 71.2594 61.2393 71.1395C65.0499 71.0386 67.4152 68.114 69.6685 65.1225C71.3478 63.0099 72.6313 60.6821 73.4715 58.2253C68.9722 56.6426 65.9327 52.7814 65.8752 48.5756Z" fill="white"/>
<path d="M58.6576 30.7465C60.7088 28.5631 61.6981 25.7773 61.4153 22.9805C58.2442 23.3084 55.3279 24.6571 53.2476 26.7581C51.2133 28.8108 50.1754 31.5485 50.4115 34.2388C53.5878 34.2276 56.6941 32.9121 58.6576 30.7465Z" fill="white"/>
<path d="M192.509 43.1554L192.565 47.6666L189.296 47.7073L189.333 50.6658L192.602 50.6251L192.727 60.6774C192.77 64.1099 194.582 65.4606 199.099 65.4044C199.893 65.3945 200.648 65.3034 201.308 65.1971L201.272 62.2713C200.705 62.3274 200.347 62.3646 199.723 62.3723C197.701 62.3975 196.802 61.5912 196.779 59.7279L196.665 50.5746L201.125 50.5191L201.089 47.5607L196.629 47.6161L196.572 43.1048L192.509 43.1554Z" fill="white"/>
<path d="M212.819 65.479C218.829 65.4043 222.471 61.8769 222.4 56.1071C222.328 50.3699 218.581 46.9181 212.59 46.9926C206.58 47.0673 202.919 50.6113 202.991 56.3484C203.062 62.1183 206.791 65.554 212.819 65.479ZM212.781 62.3571C209.247 62.401 207.234 60.1864 207.186 56.2963C207.138 52.4388 209.094 50.1585 212.628 50.1145C216.144 50.0708 218.175 52.3016 218.223 56.159C218.271 60.0328 216.296 62.3134 212.781 62.3571Z" fill="white"/>
<path d="M225.663 64.976L229.727 64.9255L229.596 54.4155C229.565 51.9147 231.717 50.2041 234.798 50.1658C235.516 50.1569 236.727 50.2563 237.068 50.3501L237.025 46.8849C236.589 46.7923 235.814 46.7529 235.209 46.7604C232.525 46.7938 230.254 48.0971 229.69 49.8533L229.388 49.8571L229.354 47.1275L225.442 47.1761L225.663 64.976Z" fill="white"/>
<path d="M247.149 49.5545C250.154 49.5172 252.142 51.307 252.271 54.1009L241.877 54.2301C242.069 51.4486 244.144 49.5919 247.149 49.5545ZM252.323 59.8383C251.585 61.237 249.912 62.0262 247.455 62.0567C244.205 62.0971 242.082 60.1454 241.911 57.0252L241.909 56.829L256.442 56.6483L256.427 55.4224C256.357 49.8324 252.857 46.4919 247.13 46.5631C241.329 46.6353 237.688 50.2934 237.759 55.9815C237.83 61.6696 241.483 65.1226 247.379 65.0493C252.085 64.9908 255.349 62.9885 256.235 59.7896L252.323 59.8383Z" fill="white"/>
<path d="M166.058 59.1429C166.426 63.5099 170.672 66.2528 176.94 66.1749C183.639 66.0916 187.794 63.1086 187.736 58.4328C187.691 54.7566 185.276 52.7533 179.463 51.6565L176.34 51.0345C172.648 50.3349 171.147 49.3538 171.126 47.6089C171.098 45.4065 173.392 43.9378 176.859 43.8946C180.15 43.8537 182.439 45.2316 182.879 47.4797L187.149 47.4266C186.843 43.313 182.615 40.4682 176.876 40.5395C170.706 40.6163 166.628 43.5644 166.682 47.9183C166.727 51.5098 169.085 53.6155 174.21 54.5853L177.863 55.3024C181.613 56.0182 183.273 57.1159 183.296 58.9794C183.323 61.1479 180.757 62.7556 177.231 62.7994C173.451 62.8464 170.807 61.4052 170.406 59.0888L166.058 59.1429Z" fill="white"/>
<path d="M123.824 48.1454C121.027 48.1802 118.623 49.4198 117.401 51.4621L117.098 51.4659L117.062 48.5237L113.15 48.5724L113.445 72.2892L117.508 72.2387L117.401 63.6248L117.722 63.6208C118.823 65.4871 121.161 66.5697 124.09 66.5333C129.287 66.4686 132.551 62.8806 132.48 57.2252C132.41 51.5697 129.059 48.0803 123.824 48.1454ZM122.86 63.3934C119.459 63.4357 117.294 61.1413 117.248 57.4309C117.202 53.7042 119.308 51.3567 122.729 51.3141C126.169 51.2714 128.257 53.5177 128.304 57.2771C128.351 61.0528 126.319 63.3504 122.86 63.3934Z" fill="white"/>
<path d="M146.584 47.8624C143.787 47.8972 141.383 49.1368 140.161 51.1791L139.858 51.1829L139.822 48.2407L135.91 48.2894L136.205 72.0062L140.268 71.9557L140.161 63.3418L140.482 63.3378C141.583 65.2041 143.921 66.2867 146.85 66.2503C152.047 66.1856 155.311 62.5976 155.24 56.9422C155.17 51.2867 151.819 47.7973 146.584 47.8624ZM145.62 63.1104C142.219 63.1527 140.054 60.8583 140.008 57.1479C139.962 53.4212 142.068 51.0736 145.489 51.0311C148.929 50.9883 151.017 53.2347 151.064 56.9941C151.111 60.7698 149.079 63.0674 145.62 63.1104Z" fill="white"/>
<path d="M106.081 66.4629L110.743 66.405L100.233 42.0856L95.5128 42.1443L85.6114 66.7175L90.1166 66.6614L92.6411 60.1405L103.415 60.0066L106.081 66.4629ZM97.703 46.5563L98.036 46.5522L102.258 56.8355L93.7181 56.9417L97.703 46.5563Z" fill="white"/>
</svg>
