<svg width="47" height="50" viewBox="0 0 47 50" fill="none" xmlns="http://www.w3.org/2000/svg">
<path d="M38.8752 26.5756C38.8844 22.852 41.1522 19.3007 44.7952 17.3051C42.4462 14.4763 38.5487 12.7126 34.5158 12.6537C30.211 12.3168 26.0749 14.9843 23.8837 15.0116C21.6502 15.0394 18.2493 12.8947 14.6172 13.0045C9.8836 13.1957 5.49808 15.5791 3.23879 19.1883C-1.6213 26.6654 2.20818 37.518 7.0266 43.4532C9.43656 46.3589 12.2512 49.6031 15.8794 49.4417C19.4296 49.2701 20.7333 47.4222 25.0206 47.3689C29.2681 47.3161 30.537 49.2594 34.2393 49.1395C38.0499 49.0386 40.4152 46.114 42.6685 43.1225C44.3478 41.0099 45.6313 38.6821 46.4715 36.2253C41.9722 34.6426 38.9327 30.7814 38.8752 26.5756Z" fill="white"/>
<path d="M31.6576 8.74652C33.7088 6.56314 34.6981 3.77725 34.4153 0.980488C31.2442 1.30836 28.3279 2.65714 26.2476 4.75809C24.2133 6.81085 23.1754 9.54854 23.4115 12.2388C26.5878 12.2276 29.6941 10.9121 31.6576 8.74652Z" fill="white"/>
</svg>
