<svg width="81" height="99" viewBox="0 0 81 99" fill="none" xmlns="http://www.w3.org/2000/svg">
<g clip-path="url(#clip0_1371_45)" filter="url(#filter0_d_1371_45)">
<path d="M76.5205 35.9606C76.579 43.4943 74.5633 50.1935 71.3647 56.5798C66.6127 66.0732 60.0167 74.1995 52.4799 81.58C49.3851 84.6139 46.0478 87.4044 42.7948 90.2785C41.8466 91.1129 41.3358 91.1127 40.3754 90.3873C29.7506 82.374 20.3009 73.219 13.0006 62.0098C9.26021 56.2667 6.34146 50.1473 5.15462 43.3238C3.27284 32.492 5.78349 22.7258 12.6695 14.1783C18.2591 7.24565 25.5282 2.9052 34.3027 1.47332C47.0139 -0.599558 57.977 3.08772 66.8618 12.4338C73.1685 19.0745 76.2321 27.1418 76.5205 35.9606ZM13.539 37.3219C13.8002 52.2011 26.0697 64.1269 40.8617 63.8874C44.4212 63.837 47.9358 63.0842 51.2037 61.6722C54.4716 60.2602 57.4285 58.2168 59.9047 55.6592C62.381 53.1016 64.3278 50.0802 65.6335 46.7684C66.9392 43.4566 67.5781 39.9196 67.5134 36.3603C67.2568 21.5911 54.9395 9.65372 40.1876 9.89497C25.2005 10.1407 13.2897 22.4099 13.539 37.3219Z" fill="#396C03"/>
<path d="M46.6677 44.2723C46.6302 42.3049 46.5701 40.3353 46.5701 38.3671C46.5875 38.1104 46.5325 37.8539 46.4113 37.6269C46.2901 37.3999 46.1076 37.2115 45.8846 37.0831C41.1875 33.8322 40.4668 26.6317 44.3915 22.4727C47.1036 19.5964 51.1704 19.4738 54.0016 22.1843C58.1947 26.191 57.781 33.5183 53.1443 36.9747C52.9391 37.1034 52.7738 37.2868 52.6669 37.5042C52.56 37.7217 52.5158 37.9646 52.5393 38.2057C52.6383 42.1719 52.7139 46.1394 52.7662 50.1082C52.7979 50.7546 52.6161 51.3934 52.2489 51.9262C51.8816 52.459 51.3494 52.8563 50.7341 53.0567C50.1408 53.2779 49.4903 53.2934 48.8872 53.1005C48.2841 52.9077 47.7633 52.5177 47.4084 51.9933C47.0492 51.4168 46.8396 50.7598 46.7985 50.0818C46.6941 48.1481 46.7047 46.2098 46.6677 44.2723Z" fill="#396C03"/>
<path d="M28.5643 38.6781C26.2761 38.4463 24.7107 37.3768 24.1071 35.1347C24.034 34.8633 23.9942 34.5841 23.9885 34.3031C23.9129 30.3381 23.7998 26.3738 23.7917 22.4075C23.8152 22.1116 23.8999 21.8238 24.0407 21.5624C24.1814 21.3011 24.375 21.0719 24.6092 20.8895C25.5658 20.2377 26.7054 21.0373 26.745 22.3236C26.808 24.4484 26.8261 26.579 26.8664 28.6942L26.8834 29.5853L29.8872 29.528L29.766 23.1725C29.7595 22.8296 29.7379 22.4844 29.7464 22.1412C29.7817 21.239 30.351 20.6272 31.1639 20.5767C31.3697 20.5626 31.5762 20.5919 31.77 20.6628C31.9637 20.7337 32.1404 20.8445 32.2886 20.9881C32.4368 21.1316 32.5532 21.3047 32.6301 21.4961C32.7071 21.6876 32.743 21.893 32.7354 22.0992C32.8052 24.314 32.82 26.5323 32.8623 28.7501L32.8761 29.476L35.8799 29.4187L35.8524 27.9769C35.8155 26.042 35.7785 24.1045 35.7416 22.1696C35.7221 21.1433 36.3305 20.4831 37.2118 20.4738C38.093 20.4646 38.6982 21.0815 38.7216 22.0427C38.8134 26.07 38.9102 30.0972 38.952 34.1254C38.9423 35.0842 38.6187 36.0134 38.0308 36.7708C37.4429 37.5282 36.623 38.0721 35.6965 38.3192C35.3429 38.4186 34.981 38.4856 34.5624 38.5912L34.6836 44.9493C34.7188 46.7916 34.774 48.636 34.789 50.4763C34.8082 50.876 34.747 51.2755 34.6091 51.6511C34.4711 52.0268 34.2592 52.3709 33.9859 52.6632C33.7126 52.9555 33.3834 53.19 33.0179 53.3528C32.6523 53.5156 32.2578 53.6034 31.8577 53.6111C31.4576 53.6187 31.06 53.546 30.6885 53.3972C30.317 53.2485 29.9791 53.0267 29.6949 52.745C29.4106 52.4634 29.1857 52.1276 29.0336 51.7574C28.8814 51.3873 28.805 50.9904 28.809 50.5903C28.7174 46.9686 28.6708 43.3436 28.6017 39.7216L28.5643 38.6781Z" fill="#396C03"/>
</g>
<defs>
<filter id="filter0_d_1371_45" x="-0.121582" y="0.243164" width="81.6768" height="99.3555" filterUnits="userSpaceOnUse" color-interpolation-filters="sRGB">
<feFlood flood-opacity="0" result="BackgroundImageFix"/>
<feColorMatrix in="SourceAlpha" type="matrix" values="0 0 0 0 0 0 0 0 0 0 0 0 0 0 0 0 0 0 127 0" result="hardAlpha"/>
<feOffset dy="4"/>
<feGaussianBlur stdDeviation="2"/>
<feComposite in2="hardAlpha" operator="out"/>
<feColorMatrix type="matrix" values="0 0 0 0 0 0 0 0 0 0 0 0 0 0 0 0 0 0 0.25 0"/>
<feBlend mode="normal" in2="BackgroundImageFix" result="effect1_dropShadow_1371_45"/>
<feBlend mode="normal" in="SourceGraphic" in2="effect1_dropShadow_1371_45" result="shape"/>
</filter>
<clipPath id="clip0_1371_45">
<rect width="71.974" height="90" fill="white" transform="translate(3.87842 1.61523) rotate(-1.09247)"/>
</clipPath>
</defs>
</svg>
