<svg width="74" height="93" viewBox="0 0 74 93" fill="none" xmlns="http://www.w3.org/2000/svg">
<g clip-path="url(#clip0_1371_49)">
<path d="M9.05372 39.5238C3.17138 38.7558 0.778569 35.2809 1.45494 28.4409L72.6453 27.0833C72.5474 29.0245 72.72 31.0015 72.2886 32.8405C71.6272 35.696 69.625 37.471 66.7486 38.1772C66.2901 38.2886 65.8219 38.3533 65.2635 38.4578L65.2883 39.757C65.573 54.6849 65.8577 69.6147 66.1424 84.5465C66.2195 88.5879 63.9899 90.9012 59.9368 90.9785L16.3586 91.8095C12.3231 91.8864 10.0124 89.645 9.93515 85.5919C9.65112 70.6973 9.3671 55.8037 9.08311 40.911L9.05372 39.5238ZM25.8397 36.6747C22.5056 39.9949 18.125 40.1312 14.6963 36.9518C12.7999 37.6569 12.7486 39.1248 12.7903 40.8491C13.0716 52.3708 13.262 63.8943 13.4818 75.4201L13.5079 76.7868L62.2332 75.8576L62.1693 72.5084C61.9523 61.1311 61.7354 49.7539 61.5184 38.3767C61.5053 37.6875 61.367 37.206 60.7181 36.8693C60.3205 36.6123 59.9493 36.3167 59.6098 35.9868C56.2013 39.4022 51.8186 39.4271 48.3633 36.2394C44.9324 39.5555 40.7395 39.6883 37.0962 36.4836C33.601 39.8215 29.4065 39.8662 25.8397 36.6747ZM38.0529 85.7305C39.2612 85.7075 40.4669 85.705 41.6749 85.6614C42.8299 85.6159 43.5963 84.8796 43.6209 83.864C43.6456 82.8484 42.8393 81.9514 41.6511 81.9535C39.2005 81.9631 36.7497 82.0098 34.2986 82.0937C34.0496 82.0886 33.8021 82.1336 33.5709 82.226C33.3396 82.3184 33.1292 82.4562 32.9522 82.6315C32.7753 82.8067 32.6353 83.0156 32.5406 83.246C32.4459 83.4763 32.3984 83.7233 32.401 83.9724C32.4067 85.0372 33.2311 85.8078 34.4311 85.8113C35.6311 85.8148 36.8447 85.7594 38.053 85.7364L38.0529 85.7305Z" fill="#396C03"/>
<path d="M64.7605 12.0687L8.6094 13.1394C8.56802 10.9692 8.35139 8.84041 8.53153 6.74807C8.77902 3.87992 11.1796 1.91834 14.2058 1.83716C19.218 1.74158 24.2301 1.646 29.2451 1.55036L58.2152 0.997917C62.2859 0.92029 64.587 3.12667 64.6701 7.1738L64.7605 12.0687ZM36.4766 8.90845C37.7201 8.88473 38.964 8.88448 40.2071 8.83731C41.3797 8.78854 42.1286 8.0584 42.1561 7.03983C42.1836 6.02126 41.3861 5.12698 40.1891 5.12633C37.7365 5.13007 35.2857 5.17681 32.8366 5.26654C32.5783 5.26134 32.3217 5.31004 32.0833 5.40951C31.8448 5.50899 31.6297 5.65706 31.4516 5.84429C31.2735 6.03153 31.1365 6.25381 31.0491 6.49697C30.9617 6.74013 30.9259 6.99883 30.9441 7.25657C31.0135 8.2821 31.7955 8.97718 32.9632 8.97838C34.1308 8.97958 35.3064 8.93076 36.4766 8.90845Z" fill="#396C03"/>
<path d="M2.19856 24.504C3.54595 22.3894 4.87583 20.4336 6.06026 18.3895C6.6823 17.3156 7.41747 16.9437 8.67276 16.9227C27.5138 16.6064 46.3549 16.2471 65.1963 15.8448C66.1641 15.8263 66.7181 16.1092 67.238 16.909C68.5979 18.9896 70.0389 21.0158 71.5471 23.1815L2.19856 24.504Z" fill="#396C03"/>
<path d="M51.2604 59.2207L23.7538 59.7452C23.8566 59.2885 23.9188 58.8619 24.0435 58.4752C25.7049 53.2888 29.1627 49.9926 34.4418 48.6656C35.2506 48.4624 35.5442 48.1664 35.4524 47.3555C35.3891 46.8104 35.4023 46.2591 35.4916 45.7176C35.5371 45.295 35.741 44.9052 36.0623 44.6269C36.3836 44.3486 36.7985 44.2024 37.2233 44.2177C38.1765 44.1995 38.8076 44.6774 39.0688 45.6083C39.108 45.7489 39.1343 45.8928 39.1474 46.0381C39.2176 46.7937 39.0275 47.7479 39.4213 48.248C39.7731 48.696 40.7748 48.6035 41.4684 48.8221C46.4272 50.394 49.7078 53.6525 51.2055 58.6496C51.2416 58.789 51.2688 58.9306 51.2869 59.0735C51.284 59.1234 51.2751 59.1729 51.2604 59.2207Z" fill="#396C03"/>
<path d="M37.5821 67.0334C32.8623 67.1234 28.1444 67.2134 23.4285 67.3033C22.9925 67.3323 22.5546 67.2951 22.1296 67.1931C21.7116 67.0964 21.3451 66.8464 21.1026 66.4925C20.8601 66.1385 20.7592 65.7065 20.8199 65.2818C20.8386 64.8547 21.0121 64.449 21.308 64.1405C21.6039 63.832 22.002 63.6417 22.4279 63.6052C22.7201 63.575 23.0138 63.5626 23.3074 63.5679L51.946 63.0218C52.163 63.0176 52.383 63.0134 52.603 63.0093C53.6688 63.0564 54.454 63.7661 54.5194 64.733C54.5847 65.6999 53.8213 66.5888 52.7265 66.7182C52.434 66.7434 52.1405 66.7539 51.8469 66.7497L37.5821 67.0334Z" fill="#396C03"/>
</g>
<defs>
<clipPath id="clip0_1371_49">
<rect width="71.3588" height="90" fill="white" transform="translate(0.797119 2.09277) rotate(-1.09247)"/>
</clipPath>
</defs>
</svg>
