<svg width="276" height="93" viewBox="0 0 276 93" fill="none" xmlns="http://www.w3.org/2000/svg">
<rect x="0.143372" y="4.18799" width="274.437" height="88.1219" rx="13.3014" transform="rotate(-0.712402 0.143372 4.18799)" fill="#090909"/>
<g filter="url(#filter0_ii_1508_310)">
<path d="M27.8095 26.1599C27.2233 26.71 26.8833 27.5568 26.8968 28.6477L27.3815 67.6227C27.395 68.7154 27.756 69.5516 28.3557 70.087L28.508 70.212L53.4806 48.065L53.4774 47.8077L53.4742 47.5504L27.9586 26.0294L27.8095 26.1599Z" fill="url(#paint0_linear_1508_310)"/>
<path d="M61.984 55.2401L53.4801 48.0646L53.4769 47.8073L53.4737 47.55L61.7986 40.1671L61.9893 40.2581L72.0203 45.0334C74.8842 46.3972 74.9127 48.6865 72.0835 50.1229L62.1744 55.1461L61.984 55.2401Z" fill="url(#paint1_linear_1508_310)"/>
<g filter="url(#filter1_i_1508_310)">
<path d="M62.1749 55.1444L53.4754 47.8073L28.3557 70.087C29.3037 70.9353 30.8556 71.0218 32.5912 70.1436L62.1749 55.1444Z" fill="url(#paint2_linear_1508_310)"/>
</g>
<path d="M61.9898 40.2568L32.0423 25.9998C30.2854 25.1633 28.7361 25.2901 27.8095 26.1617L53.4775 47.8095L61.9898 40.2568Z" fill="#396C03"/>
</g>
<path d="M138.239 48.8865C133.713 48.9428 130.061 51.9533 130.111 56.0364C130.162 60.0947 133.888 63.0383 138.415 62.982C142.943 62.9257 146.595 59.8904 146.545 55.8321C146.492 51.749 142.766 48.8302 138.239 48.8865ZM138.38 60.208C135.9 60.2389 133.74 58.5039 133.708 55.9934C133.677 53.4563 135.795 51.6947 138.274 51.6639C140.755 51.633 142.914 53.3414 142.946 55.8785C142.977 58.3874 140.861 60.1772 138.38 60.208ZM120.315 49.1094C115.789 49.1657 112.136 52.1762 112.187 56.2593C112.238 60.3176 115.964 63.2612 120.49 63.2049C125.018 63.1486 128.671 60.1133 128.62 56.055C128.569 51.9718 124.843 49.0531 120.315 49.1094ZM120.456 60.4309C117.975 60.4617 115.815 58.7268 115.784 56.2162C115.752 53.6792 117.871 51.9176 120.349 51.8867C122.83 51.8559 124.99 53.5643 125.021 56.1014C125.054 58.6103 122.936 60.4 120.456 60.4309ZM99.0226 51.5387L99.0598 54.5282L107.37 54.4248C107.142 56.1099 106.507 57.3459 105.525 58.2117C104.329 59.2674 102.452 60.4393 99.1338 60.4806C94.0186 60.5442 89.9754 57.0427 89.9206 52.638C89.8659 48.2334 93.8207 44.6324 98.936 44.5688C101.696 44.5345 103.722 45.4441 105.225 46.627L107.648 44.487C105.549 42.8044 102.775 41.5312 98.8988 41.5794C91.8918 41.6665 86.0621 46.6515 86.1371 52.6851C86.2122 58.7187 92.164 63.5571 99.171 63.47C102.953 63.423 105.793 62.3187 107.999 60.2891C110.268 58.2853 110.948 55.4991 110.92 53.257C110.911 52.5643 110.842 51.9238 110.71 51.3917L99.0226 51.5387ZM186.245 52.7761C185.544 51.2103 183.43 48.3246 179.182 48.3774C174.966 48.4298 171.497 51.3303 171.549 55.5212C171.598 59.4718 175.11 62.5257 179.76 62.4679C183.511 62.4213 185.657 60.419 186.543 59.2594L183.733 57.6917C182.818 58.8781 181.556 59.6678 179.725 59.6906C177.897 59.7133 176.585 59.0087 175.731 57.6039L186.626 53.5702L186.245 52.7761ZM175.112 55.2647C174.986 52.5416 177.511 51.1229 179.341 51.1002C180.767 51.0824 181.984 51.6822 182.399 52.5571L175.112 55.2647ZM166.301 62.2093L169.896 62.1646L169.638 41.4489L166.043 41.4936L166.301 62.2093ZM160.258 50.1889L160.134 50.1904C159.318 49.3719 157.757 48.6438 155.806 48.6681C151.713 48.719 148 51.8628 148.05 55.8416C148.099 59.7921 151.888 62.8162 155.981 62.7653C157.935 62.741 159.474 61.9743 160.27 61.1109L160.393 61.1094L160.406 62.1235C160.439 64.8197 158.783 66.2822 156.087 66.3157C153.885 66.3431 152.504 64.9996 151.932 63.8581L148.814 65.0189C149.736 66.8753 152.151 69.1424 156.121 69.0931C160.338 69.0406 163.877 66.8603 163.813 61.6536L163.655 48.9997L160.245 49.0422L160.258 50.1889ZM156.257 59.9857C153.776 60.0166 151.677 58.2527 151.647 55.7968C151.616 53.3128 153.67 51.4724 156.15 51.4416C158.598 51.4111 160.543 53.2018 160.574 55.6858C160.605 58.1417 158.704 59.9553 156.257 59.9857ZM202.949 41.0347L194.344 41.1417L194.602 61.8574L198.191 61.8128L198.093 53.9647L203.107 53.9023C207.086 53.8528 210.97 51.3234 210.921 47.3712C210.872 43.419 206.928 40.9852 202.949 41.0347ZM203.165 51.0177L198.057 51.0813L197.969 43.9805L203.077 43.917C205.761 43.8836 207.309 45.7786 207.33 47.4158C207.35 49.0199 205.85 50.9844 203.165 51.0177ZM225.321 47.7673C222.721 47.7996 220.041 48.819 218.954 51.0187L222.155 52.1241C222.822 50.9706 224.088 50.5802 225.417 50.5637C227.274 50.5406 229.174 51.4766 229.226 53.1814L229.229 53.3952C228.574 53.0835 227.175 52.6219 225.474 52.643C222.039 52.6857 218.56 54.3549 218.598 57.3924C218.633 60.1648 221.472 61.9145 224.628 61.8752C227.042 61.8452 228.362 60.8957 229.183 59.7916L229.307 59.7901L229.326 61.3892L232.794 61.3461L232.696 53.4035C232.652 49.7279 229.435 47.7161 225.321 47.7673ZM225.027 59.1256C223.853 59.1402 222.205 58.6536 222.19 57.4008C222.17 55.8016 224.206 55.1631 225.971 55.1411C227.547 55.1216 228.295 55.4056 229.259 55.7931C229.004 57.7171 227.102 59.0998 225.027 59.1256ZM245.258 47.9718L241.254 57.0046L241.13 57.0062L236.746 48.0776L232.878 48.1257L239.441 60.5988L235.875 67.6274L239.62 67.5808L249.252 47.9222L245.258 47.9718ZM213.081 61.6277L216.67 61.583L216.412 40.8673L212.823 40.9119L213.081 61.6277Z" fill="white"/>
<path d="M98.3076 30.0807C98.3246 31.4443 97.8612 32.5355 96.9157 33.3576C95.8433 34.3344 94.4341 34.8336 92.6959 34.8552C91.0309 34.8759 89.6077 34.4054 88.4323 33.4436C87.255 32.4802 86.6573 31.2769 86.6394 29.832C86.6214 28.3855 87.1889 27.1677 88.342 26.177C89.4931 25.1846 90.9041 24.6789 92.5692 24.6581C93.3959 24.6479 94.1879 24.7747 94.9411 25.0371C95.6963 25.3011 96.3026 25.6565 96.7582 26.1049L95.7556 26.9766C94.9827 26.2132 93.9261 25.8406 92.5821 25.8573C91.367 25.8725 90.3216 26.2467 89.4442 26.9802C88.5668 27.7136 88.1363 28.658 88.1506 29.8116C88.165 30.9652 88.6189 31.8985 89.5142 32.61C90.4096 33.3214 91.4639 33.6695 92.6791 33.6544C93.9673 33.6384 95.0376 33.2622 95.8881 32.5242C96.4398 32.0438 96.7546 31.3808 96.8306 30.5352L92.641 30.5873L92.6264 29.4142L98.2158 29.3447C98.2766 29.5994 98.3047 29.8448 98.3076 30.0807Z" fill="white"/>
<path d="M107.121 25.8931L101.868 25.9584L101.906 29.0532L106.644 28.9943L106.659 30.1674L101.921 30.2263L101.96 33.3211L107.212 33.2557L107.227 34.4565L100.492 34.5403L100.371 24.7777L107.106 24.6939L107.121 25.8931Z" fill="white"/>
<path d="M113.478 34.3788L111.996 34.3972L111.889 25.8338L108.667 25.8739L108.652 24.6747L116.579 24.5761L116.594 25.7753L113.372 25.8154L113.478 34.3788Z" fill="white"/>
<path d="M122.436 34.2674L122.315 24.5048L123.797 24.4864L123.918 34.249L122.436 34.2674Z" fill="white"/>
<path d="M130.493 34.1673L129.01 34.1857L128.904 25.6222L125.681 25.6623L125.666 24.4631L133.594 24.3646L133.609 25.5637L130.386 25.6038L130.493 34.1673Z" fill="white"/>
<path d="M148.706 32.6796C147.584 33.6797 146.181 34.1902 144.494 34.2112C142.808 34.2322 141.393 33.7567 140.248 32.7847C139.101 31.8128 138.521 30.6125 138.503 29.1856C138.485 27.7586 139.036 26.5443 140.158 25.5441C141.278 24.544 142.681 24.0319 144.368 24.0109C146.044 23.99 147.458 24.4688 148.608 25.4456C149.759 26.4223 150.343 27.6193 150.361 29.0381C150.378 30.4651 149.826 31.6795 148.706 32.6796ZM141.332 31.9527C142.195 32.6743 143.243 33.0258 144.479 33.0104C145.716 32.995 146.757 32.6159 147.6 31.8748C148.444 31.1319 148.862 30.1927 148.848 29.0569C148.833 27.9212 148.393 26.9926 147.53 26.271C146.669 25.5494 145.619 25.1979 144.382 25.2133C143.146 25.2287 142.107 25.6078 141.262 26.349C140.419 27.0917 140.002 28.031 140.016 29.1667C140.03 30.3025 140.471 31.2311 141.332 31.9527Z" fill="white"/>
<path d="M152.502 33.8936L152.38 24.131L154.184 24.1085L159.885 31.6325L159.949 31.6317L159.862 29.7516L159.791 24.0388L161.273 24.0204L161.395 33.783L159.847 33.8022L153.881 25.9122L153.818 25.9129L153.905 27.7931L153.98 33.8752L152.502 33.8936Z" fill="white"/>
<path d="M98.3076 30.0807C98.3246 31.4443 97.8612 32.5355 96.9157 33.3576C95.8433 34.3344 94.4341 34.8336 92.6959 34.8552C91.0309 34.8759 89.6077 34.4054 88.4323 33.4436C87.255 32.4802 86.6573 31.2769 86.6394 29.832C86.6214 28.3855 87.1889 27.1677 88.342 26.177C89.4931 25.1846 90.9041 24.6789 92.5692 24.6581C93.3959 24.6479 94.1879 24.7747 94.9411 25.0371C95.6963 25.3011 96.3026 25.6565 96.7582 26.1049L95.7556 26.9766C94.9827 26.2132 93.9261 25.8406 92.5821 25.8573C91.367 25.8725 90.3216 26.2467 89.4442 26.9802C88.5668 27.7136 88.1363 28.658 88.1506 29.8116C88.165 30.9652 88.6189 31.8985 89.5142 32.61C90.4096 33.3214 91.4639 33.6695 92.6791 33.6544C93.9673 33.6384 95.0376 33.2622 95.8881 32.5242C96.4398 32.0438 96.7546 31.3808 96.8306 30.5352L92.641 30.5873L92.6264 29.4142L98.2158 29.3447C98.2766 29.5994 98.3047 29.8448 98.3076 30.0807Z" stroke="white" stroke-width="0.0680073" stroke-miterlimit="10"/>
<path d="M107.121 25.8931L101.868 25.9584L101.906 29.0532L106.644 28.9943L106.659 30.1674L101.921 30.2263L101.96 33.3211L107.212 33.2557L107.227 34.4565L100.492 34.5403L100.371 24.7777L107.106 24.6939L107.121 25.8931Z" stroke="white" stroke-width="0.0680073" stroke-miterlimit="10"/>
<path d="M113.478 34.3788L111.996 34.3972L111.889 25.8338L108.667 25.8739L108.652 24.6747L116.579 24.5761L116.594 25.7753L113.372 25.8154L113.478 34.3788Z" stroke="white" stroke-width="0.0680073" stroke-miterlimit="10"/>
<path d="M122.436 34.2674L122.315 24.5048L123.797 24.4864L123.918 34.249L122.436 34.2674Z" stroke="white" stroke-width="0.0680073" stroke-miterlimit="10"/>
<path d="M130.493 34.1673L129.01 34.1857L128.904 25.6222L125.681 25.6623L125.666 24.4631L133.594 24.3646L133.609 25.5637L130.386 25.6038L130.493 34.1673Z" stroke="white" stroke-width="0.0680073" stroke-miterlimit="10"/>
<path d="M148.706 32.6796C147.584 33.6797 146.181 34.1902 144.494 34.2112C142.808 34.2322 141.393 33.7567 140.248 32.7847C139.101 31.8128 138.521 30.6125 138.503 29.1856C138.485 27.7586 139.036 26.5443 140.158 25.5441C141.278 24.544 142.681 24.0319 144.368 24.0109C146.044 23.99 147.458 24.4688 148.608 25.4456C149.759 26.4223 150.343 27.6193 150.361 29.0381C150.378 30.4651 149.826 31.6795 148.706 32.6796ZM141.332 31.9527C142.195 32.6743 143.243 33.0258 144.479 33.0104C145.716 32.995 146.757 32.6159 147.6 31.8748C148.444 31.1319 148.862 30.1927 148.848 29.0569C148.833 27.9212 148.393 26.9926 147.53 26.271C146.669 25.5494 145.619 25.1979 144.382 25.2133C143.146 25.2287 142.107 25.6078 141.262 26.349C140.419 27.0917 140.002 28.031 140.016 29.1667C140.03 30.3025 140.471 31.2311 141.332 31.9527Z" stroke="white" stroke-width="0.0680073" stroke-miterlimit="10"/>
<path d="M152.502 33.8936L152.38 24.131L154.184 24.1085L159.885 31.6325L159.949 31.6317L159.862 29.7516L159.791 24.0388L161.273 24.0204L161.395 33.783L159.847 33.8022L153.881 25.9122L153.818 25.9129L153.905 27.7931L153.98 33.8752L152.502 33.8936Z" stroke="white" stroke-width="0.0680073" stroke-miterlimit="10"/>
<defs>
<filter id="filter0_ii_1508_310" x="26.8964" y="25.4355" width="47.2905" height="45.3284" filterUnits="userSpaceOnUse" color-interpolation-filters="sRGB">
<feFlood flood-opacity="0" result="BackgroundImageFix"/>
<feBlend mode="normal" in="SourceGraphic" in2="BackgroundImageFix" result="shape"/>
<feColorMatrix in="SourceAlpha" type="matrix" values="0 0 0 0 0 0 0 0 0 0 0 0 0 0 0 0 0 0 127 0" result="hardAlpha"/>
<feOffset dy="-0.264366"/>
<feComposite in2="hardAlpha" operator="arithmetic" k2="-1" k3="1"/>
<feColorMatrix type="matrix" values="0 0 0 0 0 0 0 0 0 0 0 0 0 0 0 0 0 0 0.12 0"/>
<feBlend mode="normal" in2="shape" result="effect1_innerShadow_1508_310"/>
<feColorMatrix in="SourceAlpha" type="matrix" values="0 0 0 0 0 0 0 0 0 0 0 0 0 0 0 0 0 0 127 0" result="hardAlpha"/>
<feOffset dy="0.264366"/>
<feComposite in2="hardAlpha" operator="arithmetic" k2="-1" k3="1"/>
<feColorMatrix type="matrix" values="0 0 0 0 1 0 0 0 0 1 0 0 0 0 1 0 0 0 0.25 0"/>
<feBlend mode="normal" in2="effect1_innerShadow_1508_310" result="effect2_innerShadow_1508_310"/>
</filter>
<filter id="filter1_i_1508_310" x="28.3557" y="47.8074" width="33.8192" height="22.9565" filterUnits="userSpaceOnUse" color-interpolation-filters="sRGB">
<feFlood flood-opacity="0" result="BackgroundImageFix"/>
<feBlend mode="normal" in="SourceGraphic" in2="BackgroundImageFix" result="shape"/>
<feColorMatrix in="SourceAlpha" type="matrix" values="0 0 0 0 0 0 0 0 0 0 0 0 0 0 0 0 0 0 127 0" result="hardAlpha"/>
<feOffset dy="-0.264366"/>
<feComposite in2="hardAlpha" operator="arithmetic" k2="-1" k3="1"/>
<feColorMatrix type="matrix" values="0 0 0 0 0 0 0 0 0 0 0 0 0 0 0 0 0 0 0.08 0"/>
<feBlend mode="normal" in2="shape" result="effect1_innerShadow_1508_310"/>
</filter>
<linearGradient id="paint0_linear_1508_310" x1="50.9923" y1="27.9356" x2="22.1469" y2="62.1377" gradientUnits="userSpaceOnUse">
<stop stop-color="#00A0FF"/>
<stop offset="0.0066" stop-color="#00A1FF"/>
<stop offset="0.2601" stop-color="#00BEFF"/>
<stop offset="0.5122" stop-color="#00D2FF"/>
<stop offset="0.7604" stop-color="#00DFFF"/>
<stop offset="1" stop-color="#00E3FF"/>
</linearGradient>
<linearGradient id="paint1_linear_1508_310" x1="75.7573" y1="47.5303" x2="26.4552" y2="48.1433" gradientUnits="userSpaceOnUse">
<stop stop-color="#FFE000"/>
<stop offset="0.4087" stop-color="#FFBD00"/>
<stop offset="0.7754" stop-color="#FFA500"/>
<stop offset="1" stop-color="#FF9C00"/>
</linearGradient>
<linearGradient id="paint2_linear_1508_310" x1="57.4585" y1="51.801" x2="18.3399" y2="98.1835" gradientUnits="userSpaceOnUse">
<stop stop-color="#FF3A44"/>
<stop offset="1" stop-color="#C31162"/>
</linearGradient>
</defs>
</svg>
