<svg width="630" height="235" viewBox="0 0 630 235" fill="none" xmlns="http://www.w3.org/2000/svg">
<path d="M37.065 33.75C37.065 27.6833 36.22 23.285 34.53 20.555C32.8833 17.825 30.6083 16.46 27.705 16.46C24.845 16.46 22.115 17.7383 19.515 20.295C16.9583 22.8083 14.9433 25.9933 13.47 29.85C12.04 33.7067 11.325 37.6067 11.325 41.55C11.325 46.9667 12.2133 51.4083 13.99 54.875C15.81 58.3417 18.54 60.075 22.18 60.075C25.2133 60.075 27.8783 58.7533 30.175 56.11C32.515 53.4233 34.2483 50.1083 35.375 46.165C36.5017 42.2217 37.065 38.0833 37.065 33.75ZM38.235 57.54C36.285 59.6633 33.8367 61.375 30.89 62.675C27.9867 63.975 24.8017 64.625 21.335 64.625C17.8683 64.625 14.8133 63.845 12.17 62.285C9.57 60.725 7.49 58.645 5.93 56.045C2.81 50.845 1.25 44.7783 1.25 37.845C1.25 30.9117 2.96167 24.7367 6.385 19.32C9.85167 13.9033 14.4667 10.48 20.23 9.05C20.5767 9.13666 20.9017 9.31 21.205 9.57C21.5517 9.83 21.7467 10.1117 21.79 10.415C16.2 14.4883 12.82 20.035 11.65 27.055C13.47 21.9417 16.2 17.955 19.84 15.095C23.5233 12.1917 27.4667 10.74 31.67 10.74C35.8733 10.74 39.4483 12.56 42.395 16.2C45.385 19.7967 46.88 25.0183 46.88 31.865C46.88 38.5817 45.6233 44.6267 43.11 50C41.81 52.86 40.185 55.3733 38.235 57.54ZM64.2193 41.875C65.7793 36.2417 67.6426 32.1033 69.8093 29.46C72.0193 26.7733 74.0559 25.43 75.9193 25.43C77.8259 25.43 79.2559 26.145 80.2093 27.575C81.1626 28.9617 81.6393 30.7817 81.6393 33.035C81.6393 35.245 80.9676 37.2817 79.6243 39.145C78.3243 41.0083 76.5259 41.94 74.2293 41.94C73.6226 41.94 72.9076 41.7667 72.0843 41.42C73.4276 39.73 74.0993 37.6933 74.0993 35.31C74.0993 33.9233 73.5359 33.23 72.4093 33.23C71.5859 33.23 70.6976 33.815 69.7443 34.985C68.7909 36.1117 67.8809 37.6933 67.0143 39.73C66.1476 41.7233 65.4109 44.3017 64.8043 47.465C64.2409 50.585 63.9593 53.9217 63.9593 57.475C63.9593 57.9083 64.0676 59.75 64.2843 63C62.8976 63.0867 62.0093 63.13 61.6193 63.13C59.1493 63.13 57.3726 62.6967 56.2893 61.83C55.2059 60.9633 54.6643 59.5333 54.6643 57.54C54.6643 56.6733 55.1193 53.3367 56.0293 47.53C56.9393 41.7233 57.3943 37.1083 57.3943 33.685C57.3943 30.2183 57.0259 27.0333 56.2893 24.13C59.4526 25.1267 61.6626 26.5567 62.9193 28.42C64.1759 30.24 64.8043 32.385 64.8043 34.855C64.8043 37.2817 64.6093 39.6217 64.2193 41.875ZM92.1621 49.87C92.1621 55.0267 93.7221 57.605 96.8421 57.605C98.4888 57.605 100.092 56.7167 101.652 54.94C103.212 53.1633 104.469 50.78 105.422 47.79C106.419 44.8 107.264 41.615 107.957 38.235C108.694 34.8117 109.235 31.1933 109.582 27.38C110.189 20.0133 110.492 14.2717 110.492 10.155C110.492 5.995 110.319 2.875 109.972 0.794999C113.092 1.48833 115.28 2.96166 116.537 5.215C117.794 7.46833 118.422 10.3067 118.422 13.73C118.422 17.1533 117.685 23.5233 116.212 32.84C114.782 42.1567 114.067 48.96 114.067 53.25C114.067 57.54 114.262 61.18 114.652 64.17C111.575 63.3467 109.452 61.8733 108.282 59.75C107.155 57.5833 106.592 54.875 106.592 51.625C105.249 55.3517 103.234 58.2983 100.547 60.465C97.8605 62.6317 95.0871 63.715 92.2271 63.715C89.3671 63.715 87.0271 62.6317 85.2071 60.465C83.4305 58.255 82.5421 55.0267 82.5421 50.78C82.5421 44.0633 84.3838 38.3 88.0671 33.49C91.7505 28.6367 96.1055 26.21 101.132 26.21C102.562 26.21 104.815 26.5567 107.892 27.25C105.205 27.9433 102.8 29.1567 100.677 30.89C98.5971 32.58 96.9721 34.53 95.8021 36.74C93.3755 41.1167 92.1621 45.4933 92.1621 49.87ZM139.171 47.01C137.091 47.01 135.054 46.7717 133.061 46.295C133.018 46.7283 132.996 47.4 132.996 48.31C132.996 51.9067 133.668 54.615 135.011 56.435C136.354 58.255 137.958 59.165 139.821 59.165C141.684 59.165 143.461 58.6017 145.151 57.475C146.841 56.3483 148.314 54.7883 149.571 52.795C151.131 53.1417 151.911 53.9433 151.911 55.2C148.098 61.05 143.179 63.975 137.156 63.975C133.516 63.975 130.331 62.5883 127.601 59.815C124.871 56.9983 123.506 53.0983 123.506 48.115C123.506 44.3883 124.221 40.8567 125.651 37.52C127.081 34.14 129.356 31.3017 132.476 29.005C135.596 26.665 139.041 25.495 142.811 25.495C146.624 25.495 149.419 26.3617 151.196 28.095C152.973 29.8283 153.861 32.1033 153.861 34.92C153.861 38.9933 152.431 42.0267 149.571 44.02C146.754 46.0133 143.288 47.01 139.171 47.01ZM141.901 29.525C139.691 29.525 137.828 30.89 136.311 33.62C134.794 36.35 133.798 39.665 133.321 43.565H134.296C138.066 43.565 140.839 42.59 142.616 40.64C144.436 38.69 145.346 36.35 145.346 33.62C145.346 32.4933 145.043 31.54 144.436 30.76C143.873 29.9367 143.028 29.525 141.901 29.525ZM170.733 41.875C172.293 36.2417 174.156 32.1033 176.323 29.46C178.533 26.7733 180.57 25.43 182.433 25.43C184.34 25.43 185.77 26.145 186.723 27.575C187.676 28.9617 188.153 30.7817 188.153 33.035C188.153 35.245 187.481 37.2817 186.138 39.145C184.838 41.0083 183.04 41.94 180.743 41.94C180.136 41.94 179.421 41.7667 178.598 41.42C179.941 39.73 180.613 37.6933 180.613 35.31C180.613 33.9233 180.05 33.23 178.923 33.23C178.1 33.23 177.211 33.815 176.258 34.985C175.305 36.1117 174.395 37.6933 173.528 39.73C172.661 41.7233 171.925 44.3017 171.318 47.465C170.755 50.585 170.473 53.9217 170.473 57.475C170.473 57.9083 170.581 59.75 170.798 63C169.411 63.0867 168.523 63.13 168.133 63.13C165.663 63.13 163.886 62.6967 162.803 61.83C161.72 60.9633 161.178 59.5333 161.178 57.54C161.178 56.6733 161.633 53.3367 162.543 47.53C163.453 41.7233 163.908 37.1083 163.908 33.685C163.908 30.2183 163.54 27.0333 162.803 24.13C165.966 25.1267 168.176 26.5567 169.433 28.42C170.69 30.24 171.318 32.385 171.318 34.855C171.318 37.2817 171.123 39.6217 170.733 41.875ZM234.886 26.99C234.886 29.07 234.518 30.5217 233.781 31.345C233.044 32.125 231.744 32.515 229.881 32.515C228.061 32.515 226.653 32.4933 225.656 32.45C223.966 44.7567 223.121 53.575 223.121 58.905C223.121 61.4617 223.164 63.3033 223.251 64.43C223.381 65.6 223.684 67.5717 224.161 70.345C221.041 69.3483 218.744 67.7233 217.271 65.47C215.798 63.26 215.061 60.6383 215.061 57.605C215.061 53.055 215.711 46.3383 217.011 37.455C217.314 35.2017 217.509 33.7067 217.596 32.97C215.299 33.36 212.959 34.0967 210.576 35.18C210.489 34.2267 210.446 33.5117 210.446 33.035C210.446 30.695 211.161 29.1133 212.591 28.29C214.021 27.4667 216.079 27.0333 218.766 26.99C219.633 22.7433 220.781 19.0817 222.211 16.005C223.684 12.9283 225.288 10.61 227.021 9.05C230.314 6.01666 233.759 4.5 237.356 4.5C239.783 4.5 241.819 5.23666 243.466 6.71C245.156 8.14 246.001 9.91666 246.001 12.04C246.001 14.12 245.286 15.94 243.856 17.5C242.426 19.06 240.541 19.84 238.201 19.84C237.291 19.84 236.403 19.6883 235.536 19.385C236.229 18.865 236.901 17.955 237.551 16.655C238.244 15.355 238.591 14.1417 238.591 13.015C238.591 11.845 238.331 10.935 237.811 10.285C237.334 9.635 236.684 9.31 235.861 9.31C234.084 9.31 232.264 10.805 230.401 13.795C228.581 16.7417 227.216 21.205 226.306 27.185C230.163 27.185 232.979 26.47 234.756 25.04C234.843 25.9067 234.886 26.5567 234.886 26.99ZM258.169 30.435C255.352 30.435 252.839 32.3417 250.629 36.155C248.419 39.925 247.314 43.695 247.314 47.465C247.314 55.3517 249.351 59.295 253.424 59.295C256.327 59.295 258.689 57.41 260.509 53.64C262.329 49.8267 263.239 45.5583 263.239 40.835C263.239 33.9017 261.549 30.435 258.169 30.435ZM262.199 25.69C264.799 25.69 267.009 26.9683 268.829 29.525C270.649 32.0817 271.559 35.505 271.559 39.795C271.559 44.605 270.584 49.025 268.634 53.055C266.467 57.605 263.391 60.7467 259.404 62.48C257.151 63.4767 254.681 63.975 251.994 63.975C248.224 63.975 244.931 62.5233 242.114 59.62C239.341 56.6733 237.954 52.47 237.954 47.01C237.954 41.5067 239.297 36.675 241.984 32.515C244.671 28.3117 248.224 25.6683 252.644 24.585C253.121 24.585 253.554 24.7367 253.944 25.04C254.377 25.3 254.594 25.5817 254.594 25.885C250.217 28.9183 247.596 33.1433 246.729 38.56C247.639 36.1333 248.744 34.0317 250.044 32.255C251.387 30.4783 252.774 29.135 254.204 28.225C256.934 26.535 259.599 25.69 262.199 25.69ZM298.286 30.435C295.47 30.435 292.956 32.3417 290.746 36.155C288.536 39.925 287.431 43.695 287.431 47.465C287.431 55.3517 289.468 59.295 293.541 59.295C296.445 59.295 298.806 57.41 300.626 53.64C302.446 49.8267 303.356 45.5583 303.356 40.835C303.356 33.9017 301.666 30.435 298.286 30.435ZM302.316 25.69C304.916 25.69 307.126 26.9683 308.946 29.525C310.766 32.0817 311.676 35.505 311.676 39.795C311.676 44.605 310.701 49.025 308.751 53.055C306.585 57.605 303.508 60.7467 299.521 62.48C297.268 63.4767 294.798 63.975 292.111 63.975C288.341 63.975 285.048 62.5233 282.231 59.62C279.458 56.6733 278.071 52.47 278.071 47.01C278.071 41.5067 279.415 36.675 282.101 32.515C284.788 28.3117 288.341 25.6683 292.761 24.585C293.238 24.585 293.671 24.7367 294.061 25.04C294.495 25.3 294.711 25.5817 294.711 25.885C290.335 28.9183 287.713 33.1433 286.846 38.56C287.756 36.1333 288.861 34.0317 290.161 32.255C291.505 30.4783 292.891 29.135 294.321 28.225C297.051 26.535 299.716 25.69 302.316 25.69ZM326.898 49.87C326.898 55.0267 328.458 57.605 331.578 57.605C333.225 57.605 334.828 56.7167 336.388 54.94C337.948 53.1633 339.205 50.78 340.158 47.79C341.155 44.8 342 41.615 342.693 38.235C343.43 34.8117 343.972 31.1933 344.318 27.38C344.925 20.0133 345.228 14.2717 345.228 10.155C345.228 5.995 345.055 2.875 344.708 0.794999C347.828 1.48833 350.017 2.96166 351.273 5.215C352.53 7.46833 353.158 10.3067 353.158 13.73C353.158 17.1533 352.422 23.5233 350.948 32.84C349.518 42.1567 348.803 48.96 348.803 53.25C348.803 57.54 348.998 61.18 349.388 64.17C346.312 63.3467 344.188 61.8733 343.018 59.75C341.892 57.5833 341.328 54.875 341.328 51.625C339.985 55.3517 337.97 58.2983 335.283 60.465C332.597 62.6317 329.823 63.715 326.963 63.715C324.103 63.715 321.763 62.6317 319.943 60.465C318.167 58.255 317.278 55.0267 317.278 50.78C317.278 44.0633 319.12 38.3 322.803 33.49C326.487 28.6367 330.842 26.21 335.868 26.21C337.298 26.21 339.552 26.5567 342.628 27.25C339.942 27.9433 337.537 29.1567 335.413 30.89C333.333 32.58 331.708 34.53 330.538 36.74C328.112 41.1167 326.898 45.4933 326.898 49.87ZM399.912 30.435C397.096 30.435 394.582 32.3417 392.372 36.155C390.162 39.925 389.057 43.695 389.057 47.465C389.057 55.3517 391.094 59.295 395.167 59.295C398.071 59.295 400.432 57.41 402.252 53.64C404.072 49.8267 404.982 45.5583 404.982 40.835C404.982 33.9017 403.292 30.435 399.912 30.435ZM403.942 25.69C406.542 25.69 408.752 26.9683 410.572 29.525C412.392 32.0817 413.302 35.505 413.302 39.795C413.302 44.605 412.327 49.025 410.377 53.055C408.211 57.605 405.134 60.7467 401.147 62.48C398.894 63.4767 396.424 63.975 393.737 63.975C389.967 63.975 386.674 62.5233 383.857 59.62C381.084 56.6733 379.697 52.47 379.697 47.01C379.697 41.5067 381.041 36.675 383.727 32.515C386.414 28.3117 389.967 25.6683 394.387 24.585C394.864 24.585 395.297 24.7367 395.687 25.04C396.121 25.3 396.337 25.5817 396.337 25.885C391.961 28.9183 389.339 33.1433 388.472 38.56C389.382 36.1333 390.487 34.0317 391.787 32.255C393.131 30.4783 394.517 29.135 395.947 28.225C398.677 26.535 401.342 25.69 403.942 25.69ZM445.684 25.495C448.241 25.495 450.061 26.2967 451.144 27.9C452.271 29.46 452.834 31.605 452.834 34.335C452.834 37.0217 452.401 40.8133 451.534 45.71C450.711 50.6067 450.299 54.1817 450.299 56.435C450.299 58.645 450.581 60.27 451.144 61.31C451.708 62.3067 452.661 63.1733 454.004 63.91C453.441 63.9533 452.639 63.975 451.599 63.975C447.959 63.975 445.359 63.4117 443.799 62.285C442.283 61.1583 441.524 59.1867 441.524 56.37C441.524 54.7667 441.958 51.6467 442.824 47.01C443.691 42.33 444.124 38.8417 444.124 36.545C444.124 33.685 443.258 32.255 441.524 32.255C440.528 32.255 439.401 32.84 438.144 34.01C436.888 35.18 435.674 36.7833 434.504 38.82C433.334 40.8133 432.359 43.3917 431.579 46.555C430.799 49.7183 430.409 52.8817 430.409 56.045C430.409 59.165 430.539 61.4833 430.799 63C429.413 63.0867 428.503 63.13 428.069 63.13C425.599 63.13 423.823 62.6967 422.739 61.83C421.656 60.9633 421.114 59.5333 421.114 57.54C421.114 56.6733 421.569 53.3367 422.479 47.53C423.389 41.7233 423.844 37.1083 423.844 33.685C423.844 30.2183 423.476 27.0333 422.739 24.13C425.903 25.1267 428.113 26.5567 429.369 28.42C430.626 30.24 431.254 32.3417 431.254 34.725C431.254 37.065 430.994 39.795 430.474 42.915C431.904 38.0617 434.158 33.945 437.234 30.565C440.311 27.185 443.128 25.495 445.684 25.495ZM462.778 61.375C462.258 60.5083 461.933 59.685 461.803 58.905C461.673 58.0817 461.608 56.825 461.608 55.135C461.608 53.445 462.323 46.7933 463.753 35.18C465.226 23.5667 465.963 15.5933 465.963 11.26C465.963 6.92666 465.703 4.11 465.183 2.81C468.433 3.67666 470.643 4.99833 471.813 6.775C473.026 8.50833 473.633 10.9783 473.633 14.185C473.633 16.0917 473.005 22.2883 471.748 32.775C470.491 43.2617 469.863 51.7117 469.863 58.125C469.863 59.5117 469.95 61.4617 470.123 63.975C466.18 63.8017 463.731 62.935 462.778 61.375ZM482.332 52.34C482.332 50.52 482.678 47.2267 483.372 42.46C484.065 37.6933 484.412 33.9883 484.412 31.345C484.412 28.7017 484.282 26.665 484.022 25.235C484.975 25.1483 485.863 25.105 486.687 25.105C489.2 25.105 490.933 25.5383 491.887 26.405C492.883 27.2283 493.382 28.6583 493.382 30.695C493.382 31.345 492.84 34.7683 491.757 40.965C490.717 47.1183 490.175 52.21 490.132 56.24C490.132 60.2267 490.392 62.805 490.912 63.975C487.532 63.1083 485.257 61.8083 484.087 60.075C482.917 58.2983 482.332 55.72 482.332 52.34ZM491.172 19.645C486.708 19.645 484.477 18.085 484.477 14.965C484.477 13.8383 484.802 12.3 485.452 10.35C486.665 10.1767 487.727 10.09 488.637 10.09C493.1 10.09 495.332 11.65 495.332 14.77C495.332 15.8967 495.007 17.435 494.357 19.385C493.143 19.5583 492.082 19.645 491.172 19.645ZM526.681 25.495C529.237 25.495 531.057 26.2967 532.141 27.9C533.267 29.46 533.831 31.605 533.831 34.335C533.831 37.0217 533.397 40.8133 532.531 45.71C531.707 50.6067 531.296 54.1817 531.296 56.435C531.296 58.645 531.577 60.27 532.141 61.31C532.704 62.3067 533.657 63.1733 535.001 63.91C534.437 63.9533 533.636 63.975 532.596 63.975C528.956 63.975 526.356 63.4117 524.796 62.285C523.279 61.1583 522.521 59.1867 522.521 56.37C522.521 54.7667 522.954 51.6467 523.821 47.01C524.687 42.33 525.121 38.8417 525.121 36.545C525.121 33.685 524.254 32.255 522.521 32.255C521.524 32.255 520.397 32.84 519.141 34.01C517.884 35.18 516.671 36.7833 515.501 38.82C514.331 40.8133 513.356 43.3917 512.576 46.555C511.796 49.7183 511.406 52.8817 511.406 56.045C511.406 59.165 511.536 61.4833 511.796 63C510.409 63.0867 509.499 63.13 509.066 63.13C506.596 63.13 504.819 62.6967 503.736 61.83C502.652 60.9633 502.111 59.5333 502.111 57.54C502.111 56.6733 502.566 53.3367 503.476 47.53C504.386 41.7233 504.841 37.1083 504.841 33.685C504.841 30.2183 504.472 27.0333 503.736 24.13C506.899 25.1267 509.109 26.5567 510.366 28.42C511.622 30.24 512.251 32.3417 512.251 34.725C512.251 37.065 511.991 39.795 511.471 42.915C512.901 38.0617 515.154 33.945 518.231 30.565C521.307 27.185 524.124 25.495 526.681 25.495ZM557.164 47.01C555.084 47.01 553.047 46.7717 551.054 46.295C551.011 46.7283 550.989 47.4 550.989 48.31C550.989 51.9067 551.661 54.615 553.004 56.435C554.347 58.255 555.951 59.165 557.814 59.165C559.677 59.165 561.454 58.6017 563.144 57.475C564.834 56.3483 566.307 54.7883 567.564 52.795C569.124 53.1417 569.904 53.9433 569.904 55.2C566.091 61.05 561.172 63.975 555.149 63.975C551.509 63.975 548.324 62.5883 545.594 59.815C542.864 56.9983 541.499 53.0983 541.499 48.115C541.499 44.3883 542.214 40.8567 543.644 37.52C545.074 34.14 547.349 31.3017 550.469 29.005C553.589 26.665 557.034 25.495 560.804 25.495C564.617 25.495 567.412 26.3617 569.189 28.095C570.966 29.8283 571.854 32.1033 571.854 34.92C571.854 38.9933 570.424 42.0267 567.564 44.02C564.747 46.0133 561.281 47.01 557.164 47.01ZM559.894 29.525C557.684 29.525 555.821 30.89 554.304 33.62C552.787 36.35 551.791 39.665 551.314 43.565H552.289C556.059 43.565 558.832 42.59 560.609 40.64C562.429 38.69 563.339 36.35 563.339 33.62C563.339 32.4933 563.036 31.54 562.429 30.76C561.866 29.9367 561.021 29.525 559.894 29.525ZM24.715 110.99C24.715 113.07 24.3467 114.522 23.61 115.345C22.8733 116.125 21.5733 116.515 19.71 116.515C17.89 116.515 16.4817 116.493 15.485 116.45C13.795 128.757 12.95 137.575 12.95 142.905C12.95 145.462 12.9933 147.303 13.08 148.43C13.21 149.6 13.5133 151.572 13.99 154.345C10.87 153.348 8.57333 151.723 7.1 149.47C5.62667 147.26 4.89 144.638 4.89 141.605C4.89 137.055 5.54 130.338 6.84 121.455C7.14333 119.202 7.33833 117.707 7.425 116.97C5.12833 117.36 2.78833 118.097 0.405 119.18C0.318333 118.227 0.275 117.512 0.275 117.035C0.275 114.695 0.99 113.113 2.42 112.29C3.85 111.467 5.90833 111.033 8.595 110.99C9.46167 106.743 10.61 103.082 12.04 100.005C13.5133 96.9283 15.1167 94.61 16.85 93.05C20.1433 90.0167 23.5883 88.5 27.185 88.5C29.6117 88.5 31.6483 89.2367 33.295 90.71C34.985 92.14 35.83 93.9167 35.83 96.04C35.83 98.12 35.115 99.94 33.685 101.5C32.255 103.06 30.37 103.84 28.03 103.84C27.12 103.84 26.2317 103.688 25.365 103.385C26.0583 102.865 26.73 101.955 27.38 100.655C28.0733 99.355 28.42 98.1417 28.42 97.015C28.42 95.845 28.16 94.935 27.64 94.285C27.1633 93.635 26.5133 93.31 25.69 93.31C23.9133 93.31 22.0933 94.805 20.23 97.795C18.41 100.742 17.045 105.205 16.135 111.185C19.9917 111.185 22.8083 110.47 24.585 109.04C24.6717 109.907 24.715 110.557 24.715 110.99ZM38.6382 125.875C40.1982 120.242 42.0615 116.103 44.2282 113.46C46.4382 110.773 48.4749 109.43 50.3382 109.43C52.2449 109.43 53.6749 110.145 54.6282 111.575C55.5815 112.962 56.0582 114.782 56.0582 117.035C56.0582 119.245 55.3865 121.282 54.0432 123.145C52.7432 125.008 50.9449 125.94 48.6482 125.94C48.0415 125.94 47.3265 125.767 46.5032 125.42C47.8465 123.73 48.5182 121.693 48.5182 119.31C48.5182 117.923 47.9549 117.23 46.8282 117.23C46.0049 117.23 45.1165 117.815 44.1632 118.985C43.2099 120.112 42.2999 121.693 41.4332 123.73C40.5665 125.723 39.8299 128.302 39.2232 131.465C38.6599 134.585 38.3782 137.922 38.3782 141.475C38.3782 141.908 38.4865 143.75 38.7032 147C37.3165 147.087 36.4282 147.13 36.0382 147.13C33.5682 147.13 31.7915 146.697 30.7082 145.83C29.6249 144.963 29.0832 143.533 29.0832 141.54C29.0832 140.673 29.5382 137.337 30.4482 131.53C31.3582 125.723 31.8132 121.108 31.8132 117.685C31.8132 114.218 31.4449 111.033 30.7082 108.13C33.8715 109.127 36.0815 110.557 37.3382 112.42C38.5949 114.24 39.2232 116.385 39.2232 118.855C39.2232 121.282 39.0282 123.622 38.6382 125.875ZM78.0861 114.435C75.2694 114.435 72.7561 116.342 70.5461 120.155C68.3361 123.925 67.2311 127.695 67.2311 131.465C67.2311 139.352 69.2678 143.295 73.3411 143.295C76.2444 143.295 78.6061 141.41 80.4261 137.64C82.2461 133.827 83.1561 129.558 83.1561 124.835C83.1561 117.902 81.4661 114.435 78.0861 114.435ZM82.1161 109.69C84.7161 109.69 86.9261 110.968 88.7461 113.525C90.5661 116.082 91.4761 119.505 91.4761 123.795C91.4761 128.605 90.5011 133.025 88.5511 137.055C86.3844 141.605 83.3078 144.747 79.3211 146.48C77.0678 147.477 74.5978 147.975 71.9111 147.975C68.1411 147.975 64.8478 146.523 62.0311 143.62C59.2578 140.673 57.8711 136.47 57.8711 131.01C57.8711 125.507 59.2144 120.675 61.9011 116.515C64.5878 112.312 68.1411 109.668 72.5611 108.585C73.0378 108.585 73.4711 108.737 73.8611 109.04C74.2944 109.3 74.5111 109.582 74.5111 109.885C70.1344 112.918 67.5128 117.143 66.6461 122.56C67.5561 120.133 68.6611 118.032 69.9611 116.255C71.3044 114.478 72.6911 113.135 74.1211 112.225C76.8511 110.535 79.5161 109.69 82.1161 109.69ZM127.368 140.11C127.368 142.277 127.498 144.573 127.758 147C126.372 147.087 125.462 147.13 125.028 147.13C122.602 147.13 120.847 146.718 119.763 145.895C118.68 145.028 118.138 143.772 118.138 142.125C118.138 140.478 118.593 137.098 119.503 131.985C120.457 126.828 120.933 122.928 120.933 120.285C120.933 117.598 120.067 116.255 118.333 116.255C117.38 116.255 116.34 116.84 115.213 118.01C114.087 119.137 113.025 120.697 112.028 122.69C111.032 124.64 110.187 127.153 109.493 130.23C108.843 133.307 108.518 136.275 108.518 139.135C108.518 141.952 108.648 144.573 108.908 147C107.522 147.087 106.612 147.13 106.178 147.13C103.752 147.13 101.997 146.718 100.913 145.895C99.8299 145.028 99.2883 143.598 99.2883 141.605C99.2883 141.128 99.7216 137.9 100.588 131.92C101.498 125.94 101.953 121.217 101.953 117.75C101.953 114.24 101.585 111.033 100.848 108.13C104.055 109.127 106.287 110.557 107.543 112.42C108.8 114.283 109.428 116.58 109.428 119.31C109.428 120.697 109.277 122.452 108.973 124.575C110.447 120.242 112.483 116.645 115.083 113.785C117.727 110.925 120.262 109.495 122.688 109.495C125.158 109.495 126.935 110.405 128.018 112.225C129.145 114.045 129.708 116.667 129.708 120.09C131.355 116.927 133.24 114.37 135.363 112.42C137.487 110.47 139.437 109.495 141.213 109.495C143.857 109.495 145.72 110.297 146.803 111.9C147.93 113.46 148.493 115.605 148.493 118.335C148.493 121.022 148.06 124.813 147.193 129.71C146.37 134.607 145.958 138.182 145.958 140.435C145.958 142.645 146.24 144.27 146.803 145.31C147.367 146.307 148.32 147.173 149.663 147.91C149.1 147.953 148.298 147.975 147.258 147.975C143.618 147.975 141.018 147.412 139.458 146.285C137.942 145.158 137.183 143.187 137.183 140.37C137.183 138.767 137.617 135.647 138.483 131.01C139.35 126.33 139.783 122.842 139.783 120.545C139.783 117.685 138.917 116.255 137.183 116.255C135.883 116.255 134.475 117.208 132.958 119.115C131.485 120.978 130.185 123.817 129.058 127.63C127.932 131.4 127.368 135.56 127.368 140.11ZM207.228 113.98C207.228 115.497 206.578 117.555 205.278 120.155C203.978 122.712 202.396 125.55 200.533 128.67C198.67 131.79 196.806 135.127 194.943 138.68C193.08 142.19 191.498 146.155 190.198 150.575C188.898 155.038 188.248 159.393 188.248 163.64C188.248 165.59 188.4 167.453 188.703 169.23C185.193 168.58 182.81 167.605 181.553 166.305C180.296 165.048 179.668 163.553 179.668 161.82C179.668 159.437 181.401 154.735 184.868 147.715C184.218 145.028 183.416 140.825 182.463 135.105C181.51 129.342 180.535 124.337 179.538 120.09C178.585 115.843 177.48 112.68 176.223 110.6C178.606 109.473 180.513 108.91 181.943 108.91C183.373 108.91 184.456 109.235 185.193 109.885C185.93 110.535 186.536 111.835 187.013 113.785C187.533 115.692 187.901 117.273 188.118 118.53C188.725 122.69 189.028 125.008 189.028 125.485C189.028 125.962 189.201 127.912 189.548 131.335C189.895 134.715 190.155 136.947 190.328 138.03C198.041 123.08 201.898 113.092 201.898 108.065C205.451 109.885 207.228 111.857 207.228 113.98ZM231.319 114.435C228.502 114.435 225.989 116.342 223.779 120.155C221.569 123.925 220.464 127.695 220.464 131.465C220.464 139.352 222.5 143.295 226.574 143.295C229.477 143.295 231.839 141.41 233.659 137.64C235.479 133.827 236.389 129.558 236.389 124.835C236.389 117.902 234.699 114.435 231.319 114.435ZM235.349 109.69C237.949 109.69 240.159 110.968 241.979 113.525C243.799 116.082 244.709 119.505 244.709 123.795C244.709 128.605 243.734 133.025 241.784 137.055C239.617 141.605 236.54 144.747 232.554 146.48C230.3 147.477 227.83 147.975 225.144 147.975C221.374 147.975 218.08 146.523 215.264 143.62C212.49 140.673 211.104 136.47 211.104 131.01C211.104 125.507 212.447 120.675 215.134 116.515C217.82 112.312 221.374 109.668 225.794 108.585C226.27 108.585 226.704 108.737 227.094 109.04C227.527 109.3 227.744 109.582 227.744 109.885C223.367 112.918 220.745 117.143 219.879 122.56C220.789 120.133 221.894 118.032 223.194 116.255C224.537 114.478 225.924 113.135 227.354 112.225C230.084 110.535 232.749 109.69 235.349 109.69ZM276.246 109.365C278.499 109.365 280.211 109.777 281.381 110.6C282.551 111.423 283.136 112.94 283.136 115.15C283.136 115.843 282.724 118.898 281.901 124.315C281.077 129.688 280.666 134.303 280.666 138.16C280.666 142.017 281.077 145.418 281.901 148.365C278.651 147.325 276.397 145.852 275.141 143.945C273.884 142.038 273.256 139.677 273.256 136.86C273.256 135.777 273.494 133.328 273.971 129.515C272.627 134.455 270.569 138.615 267.796 141.995C265.066 145.332 262.487 147 260.061 147C255.077 147 252.586 143.403 252.586 136.21C252.586 133.827 252.932 130.512 253.626 126.265C254.362 121.975 254.731 118.725 254.731 116.515C254.731 114.305 254.427 112.073 253.821 109.82C257.417 109.82 260.017 110.297 261.621 111.25C263.267 112.16 264.091 114.002 264.091 116.775C264.091 118.248 263.636 121.173 262.726 125.55C261.816 129.927 261.361 133.22 261.361 135.43C261.361 138.637 262.227 140.24 263.961 140.24C264.827 140.24 265.824 139.655 266.951 138.485C268.077 137.272 269.161 135.69 270.201 133.74C271.241 131.747 272.107 129.277 272.801 126.33C273.537 123.34 273.906 120.328 273.906 117.295C273.906 114.218 273.776 111.618 273.516 109.495C274.816 109.408 275.726 109.365 276.246 109.365ZM301.495 125.875C303.055 120.242 304.918 116.103 307.085 113.46C309.295 110.773 311.331 109.43 313.195 109.43C315.101 109.43 316.531 110.145 317.485 111.575C318.438 112.962 318.915 114.782 318.915 117.035C318.915 119.245 318.243 121.282 316.9 123.145C315.6 125.008 313.801 125.94 311.505 125.94C310.898 125.94 310.183 125.767 309.36 125.42C310.703 123.73 311.375 121.693 311.375 119.31C311.375 117.923 310.811 117.23 309.685 117.23C308.861 117.23 307.973 117.815 307.02 118.985C306.066 120.112 305.156 121.693 304.29 123.73C303.423 125.723 302.686 128.302 302.08 131.465C301.516 134.585 301.235 137.922 301.235 141.475C301.235 141.908 301.343 143.75 301.56 147C300.173 147.087 299.285 147.13 298.895 147.13C296.425 147.13 294.648 146.697 293.565 145.83C292.481 144.963 291.94 143.533 291.94 141.54C291.94 140.673 292.395 137.337 293.305 131.53C294.215 125.723 294.67 121.108 294.67 117.685C294.67 114.218 294.301 111.033 293.565 108.13C296.728 109.127 298.938 110.557 300.195 112.42C301.451 114.24 302.08 116.385 302.08 118.855C302.08 121.282 301.885 123.622 301.495 125.875ZM365.648 110.99C365.648 113.07 365.279 114.522 364.543 115.345C363.806 116.125 362.506 116.515 360.643 116.515C358.823 116.515 357.414 116.493 356.418 116.45C354.728 128.757 353.883 137.575 353.883 142.905C353.883 145.462 353.926 147.303 354.013 148.43C354.143 149.6 354.446 151.572 354.923 154.345C351.803 153.348 349.506 151.723 348.033 149.47C346.559 147.26 345.823 144.638 345.823 141.605C345.823 137.055 346.473 130.338 347.773 121.455C348.076 119.202 348.271 117.707 348.358 116.97C346.061 117.36 343.721 118.097 341.338 119.18C341.251 118.227 341.208 117.512 341.208 117.035C341.208 114.695 341.923 113.113 343.353 112.29C344.783 111.467 346.841 111.033 349.528 110.99C350.394 106.743 351.543 103.082 352.973 100.005C354.446 96.9283 356.049 94.61 357.783 93.05C361.076 90.0167 364.521 88.5 368.118 88.5C370.544 88.5 372.581 89.2367 374.228 90.71C375.918 92.14 376.763 93.9167 376.763 96.04C376.763 98.12 376.048 99.94 374.618 101.5C373.188 103.06 371.303 103.84 368.963 103.84C368.053 103.84 367.164 103.688 366.298 103.385C366.991 102.865 367.663 101.955 368.313 100.655C369.006 99.355 369.353 98.1417 369.353 97.015C369.353 95.845 369.093 94.935 368.573 94.285C368.096 93.635 367.446 93.31 366.623 93.31C364.846 93.31 363.026 94.805 361.163 97.795C359.343 100.742 357.978 105.205 357.068 111.185C360.924 111.185 363.741 110.47 365.518 109.04C365.604 109.907 365.648 110.557 365.648 110.99ZM377.556 134.715C377.556 136.752 377.924 138.42 378.661 139.72C379.441 140.977 380.524 141.605 381.911 141.605C383.947 141.605 385.876 140.413 387.696 138.03C389.559 135.647 391.032 132.592 392.116 128.865C393.242 125.138 393.806 121.607 393.806 118.27C393.806 114.89 393.676 112.16 393.416 110.08C394.716 109.993 395.626 109.95 396.146 109.95C398.356 109.95 400.024 110.362 401.151 111.185C402.277 112.008 402.841 113.482 402.841 115.605C402.841 116.428 402.321 119.787 401.281 125.68C400.241 131.53 399.721 136.232 399.721 139.785C399.721 143.295 400.392 146.415 401.736 149.145C398.486 148.582 396.102 147.39 394.586 145.57C393.069 143.707 392.311 141.042 392.311 137.575C392.311 136.968 392.397 135.798 392.571 134.065C391.401 138.182 389.321 141.497 386.331 144.01C383.341 146.523 380.394 147.78 377.491 147.78C374.631 147.78 372.312 146.718 370.536 144.595C368.802 142.428 367.936 139.373 367.936 135.43C367.936 131.487 368.629 127.673 370.016 123.99C371.446 120.263 373.569 117.122 376.386 114.565C379.202 111.965 382.344 110.665 385.811 110.665C387.804 110.665 389.841 111.142 391.921 112.095C387.544 113.655 384.056 116.732 381.456 121.325C378.856 125.875 377.556 130.338 377.556 134.715ZM424.016 147C422.629 147.607 421.177 147.91 419.661 147.91C418.144 147.91 417.299 147.585 417.126 146.935C416.432 144.162 415.631 140.023 414.721 134.52C413.811 128.973 412.879 124.142 411.926 120.025C411.016 115.865 409.911 112.723 408.611 110.6C410.994 109.473 412.901 108.91 414.331 108.91C415.761 108.91 416.844 109.235 417.581 109.885C418.317 110.535 418.924 111.835 419.401 113.785C419.921 115.692 420.289 117.273 420.506 118.53C421.112 122.69 421.416 125.008 421.416 125.485C421.416 125.962 421.589 127.912 421.936 131.335C422.282 134.715 422.542 136.947 422.716 138.03C430.429 123.08 434.286 113.092 434.286 108.065C437.839 109.885 439.616 111.857 439.616 113.98C439.616 115.713 438.706 118.292 436.886 121.715C435.109 125.095 432.856 129.212 430.126 134.065C427.439 138.875 425.402 143.187 424.016 147ZM463.706 114.435C460.89 114.435 458.376 116.342 456.166 120.155C453.956 123.925 452.851 127.695 452.851 131.465C452.851 139.352 454.888 143.295 458.961 143.295C461.865 143.295 464.226 141.41 466.046 137.64C467.866 133.827 468.776 129.558 468.776 124.835C468.776 117.902 467.086 114.435 463.706 114.435ZM467.736 109.69C470.336 109.69 472.546 110.968 474.366 113.525C476.186 116.082 477.096 119.505 477.096 123.795C477.096 128.605 476.121 133.025 474.171 137.055C472.005 141.605 468.928 144.747 464.941 146.48C462.688 147.477 460.218 147.975 457.531 147.975C453.761 147.975 450.468 146.523 447.651 143.62C444.878 140.673 443.491 136.47 443.491 131.01C443.491 125.507 444.835 120.675 447.521 116.515C450.208 112.312 453.761 109.668 458.181 108.585C458.658 108.585 459.091 108.737 459.481 109.04C459.915 109.3 460.131 109.582 460.131 109.885C455.755 112.918 453.133 117.143 452.266 122.56C453.176 120.133 454.281 118.032 455.581 116.255C456.925 114.478 458.311 113.135 459.741 112.225C462.471 110.535 465.136 109.69 467.736 109.69ZM508.633 109.365C510.887 109.365 512.598 109.777 513.768 110.6C514.938 111.423 515.523 112.94 515.523 115.15C515.523 115.843 515.112 118.898 514.288 124.315C513.465 129.688 513.053 134.303 513.053 138.16C513.053 142.017 513.465 145.418 514.288 148.365C511.038 147.325 508.785 145.852 507.528 143.945C506.272 142.038 505.643 139.677 505.643 136.86C505.643 135.777 505.882 133.328 506.358 129.515C505.015 134.455 502.957 138.615 500.183 141.995C497.453 145.332 494.875 147 492.448 147C487.465 147 484.973 143.403 484.973 136.21C484.973 133.827 485.32 130.512 486.013 126.265C486.75 121.975 487.118 118.725 487.118 116.515C487.118 114.305 486.815 112.073 486.208 109.82C489.805 109.82 492.405 110.297 494.008 111.25C495.655 112.16 496.478 114.002 496.478 116.775C496.478 118.248 496.023 121.173 495.113 125.55C494.203 129.927 493.748 133.22 493.748 135.43C493.748 138.637 494.615 140.24 496.348 140.24C497.215 140.24 498.212 139.655 499.338 138.485C500.465 137.272 501.548 135.69 502.588 133.74C503.628 131.747 504.495 129.277 505.188 126.33C505.925 123.34 506.293 120.328 506.293 117.295C506.293 114.218 506.163 111.618 505.903 109.495C507.203 109.408 508.113 109.365 508.633 109.365ZM533.882 125.875C535.442 120.242 537.306 116.103 539.472 113.46C541.682 110.773 543.719 109.43 545.582 109.43C547.489 109.43 548.919 110.145 549.872 111.575C550.826 112.962 551.302 114.782 551.302 117.035C551.302 119.245 550.631 121.282 549.287 123.145C547.987 125.008 546.189 125.94 543.892 125.94C543.286 125.94 542.571 125.767 541.747 125.42C543.091 123.73 543.762 121.693 543.762 119.31C543.762 117.923 543.199 117.23 542.072 117.23C541.249 117.23 540.361 117.815 539.407 118.985C538.454 120.112 537.544 121.693 536.677 123.73C535.811 125.723 535.074 128.302 534.467 131.465C533.904 134.585 533.622 137.922 533.622 141.475C533.622 141.908 533.731 143.75 533.947 147C532.561 147.087 531.672 147.13 531.282 147.13C528.812 147.13 527.036 146.697 525.952 145.83C524.869 144.963 524.327 143.533 524.327 141.54C524.327 140.673 524.782 137.337 525.692 131.53C526.602 125.723 527.057 121.108 527.057 117.685C527.057 114.218 526.689 111.033 525.952 108.13C529.116 109.127 531.326 110.557 532.582 112.42C533.839 114.24 534.467 116.385 534.467 118.855C534.467 121.282 534.272 123.622 533.882 125.875ZM555.52 136.34C555.52 134.52 555.867 131.227 556.56 126.46C557.254 121.693 557.6 117.988 557.6 115.345C557.6 112.702 557.47 110.665 557.21 109.235C558.164 109.148 559.052 109.105 559.875 109.105C562.389 109.105 564.122 109.538 565.075 110.405C566.072 111.228 566.57 112.658 566.57 114.695C566.57 115.345 566.029 118.768 564.945 124.965C563.905 131.118 563.364 136.21 563.32 140.24C563.32 144.227 563.58 146.805 564.1 147.975C560.72 147.108 558.445 145.808 557.275 144.075C556.105 142.298 555.52 139.72 555.52 136.34ZM564.36 103.645C559.897 103.645 557.665 102.085 557.665 98.965C557.665 97.8383 557.99 96.3 558.64 94.35C559.854 94.1767 560.915 94.09 561.825 94.09C566.289 94.09 568.52 95.65 568.52 98.77C568.52 99.8967 568.195 101.435 567.545 103.385C566.332 103.558 565.27 103.645 564.36 103.645ZM587.324 124.575C586.631 128.432 586.089 131.855 585.699 134.845C585.309 137.835 585.114 140.89 585.114 144.01C585.114 147.13 585.417 149.362 586.024 150.705C582.687 149.838 580.391 148.517 579.134 146.74C577.877 144.92 577.249 142.363 577.249 139.07C577.249 136.167 577.704 132.202 578.614 127.175C579.524 122.105 580.109 118.682 580.369 116.905C578.116 117.295 575.711 118.053 573.154 119.18C573.067 118.227 573.024 117.512 573.024 117.035C573.024 114.738 573.717 113.178 575.104 112.355C576.491 111.488 578.484 111.033 581.084 110.99C581.387 107.74 581.539 105.4 581.539 103.97C581.539 102.54 581.517 101.348 581.474 100.395C581.474 99.4417 581.474 98.7267 581.474 98.25C584.334 98.5533 586.414 99.42 587.714 100.85C589.014 102.237 589.664 104.23 589.664 106.83C589.664 107.87 589.556 109.322 589.339 111.185C592.979 111.098 595.644 110.383 597.334 109.04C597.421 109.907 597.464 110.557 597.464 110.99C597.464 113.07 597.096 114.522 596.359 115.345C595.622 116.125 594.387 116.515 592.654 116.515C590.921 116.515 589.599 116.493 588.689 116.45C588.472 118.01 588.017 120.718 587.324 124.575ZM614.737 131.01C612.657 131.01 610.621 130.772 608.627 130.295C608.584 130.728 608.562 131.4 608.562 132.31C608.562 135.907 609.234 138.615 610.577 140.435C611.921 142.255 613.524 143.165 615.387 143.165C617.251 143.165 619.027 142.602 620.717 141.475C622.407 140.348 623.881 138.788 625.137 136.795C626.697 137.142 627.477 137.943 627.477 139.2C623.664 145.05 618.746 147.975 612.722 147.975C609.082 147.975 605.897 146.588 603.167 143.815C600.437 140.998 599.072 137.098 599.072 132.115C599.072 128.388 599.787 124.857 601.217 121.52C602.647 118.14 604.922 115.302 608.042 113.005C611.162 110.665 614.607 109.495 618.377 109.495C622.191 109.495 624.986 110.362 626.762 112.095C628.539 113.828 629.427 116.103 629.427 118.92C629.427 122.993 627.997 126.027 625.137 128.02C622.321 130.013 618.854 131.01 614.737 131.01ZM617.467 113.525C615.257 113.525 613.394 114.89 611.877 117.62C610.361 120.35 609.364 123.665 608.887 127.565H609.862C613.632 127.565 616.406 126.59 618.182 124.64C620.002 122.69 620.912 120.35 620.912 117.62C620.912 116.493 620.609 115.54 620.002 114.76C619.439 113.937 618.594 113.525 617.467 113.525ZM3.525 229.375C3.005 228.508 2.68 227.685 2.55 226.905C2.42 226.082 2.355 224.825 2.355 223.135C2.355 221.445 3.07 214.793 4.5 203.18C5.97333 191.567 6.71 183.593 6.71 179.26C6.71 174.927 6.45 172.11 5.93 170.81C9.18 171.677 11.39 172.998 12.56 174.775C13.7733 176.508 14.38 178.978 14.38 182.185C14.38 184.092 13.7517 190.288 12.495 200.775C11.2383 211.262 10.61 219.712 10.61 226.125C10.61 227.512 10.6967 229.462 10.87 231.975C6.92667 231.802 4.47833 230.935 3.525 229.375ZM40.8888 198.435C38.0722 198.435 35.5588 200.342 33.3488 204.155C31.1388 207.925 30.0338 211.695 30.0338 215.465C30.0338 223.352 32.0705 227.295 36.1438 227.295C39.0472 227.295 41.4088 225.41 43.2288 221.64C45.0488 217.827 45.9588 213.558 45.9588 208.835C45.9588 201.902 44.2688 198.435 40.8888 198.435ZM44.9188 193.69C47.5188 193.69 49.7288 194.968 51.5488 197.525C53.3688 200.082 54.2788 203.505 54.2788 207.795C54.2788 212.605 53.3038 217.025 51.3538 221.055C49.1872 225.605 46.1105 228.747 42.1238 230.48C39.8705 231.477 37.4005 231.975 34.7138 231.975C30.9438 231.975 27.6505 230.523 24.8338 227.62C22.0605 224.673 20.6738 220.47 20.6738 215.01C20.6738 209.507 22.0172 204.675 24.7038 200.515C27.3905 196.312 30.9438 193.668 35.3638 192.585C35.8405 192.585 36.2738 192.737 36.6638 193.04C37.0972 193.3 37.3138 193.582 37.3138 193.885C32.9372 196.918 30.3155 201.143 29.4488 206.56C30.3588 204.133 31.4638 202.032 32.7638 200.255C34.1072 198.478 35.4938 197.135 36.9238 196.225C39.6538 194.535 42.3188 193.69 44.9188 193.69ZM70.086 216.31C70.086 223.547 72.2093 227.165 76.456 227.165C78.1027 227.165 79.771 226.602 81.461 225.475C83.151 224.348 84.6243 222.788 85.881 220.795C87.441 221.142 88.221 221.943 88.221 223.2C86.401 226.363 84.1693 228.617 81.526 229.96C78.8827 231.303 76.2394 231.975 73.596 231.975C70.0427 231.975 67.0093 230.675 64.496 228.075C62.026 225.432 60.791 221.618 60.791 216.635C60.791 210.265 62.546 204.827 66.056 200.32C69.566 195.77 74.311 193.495 80.291 193.495C83.6277 193.495 86.141 194.318 87.831 195.965C89.521 197.568 90.366 199.497 90.366 201.75C90.366 203.96 89.6727 205.888 88.286 207.535C86.9427 209.182 85.2094 210.005 83.086 210.005C82.046 210.005 81.006 209.788 79.966 209.355C80.616 208.618 81.2227 207.47 81.786 205.91C82.3493 204.307 82.631 202.833 82.631 201.49C82.631 198.847 81.4827 197.525 79.186 197.525C76.4994 197.525 74.311 199.497 72.621 203.44C70.931 207.383 70.086 211.673 70.086 216.31ZM105.051 218.715C105.051 220.752 105.419 222.42 106.156 223.72C106.936 224.977 108.019 225.605 109.406 225.605C111.443 225.605 113.371 224.413 115.191 222.03C117.054 219.647 118.528 216.592 119.611 212.865C120.738 209.138 121.301 205.607 121.301 202.27C121.301 198.89 121.171 196.16 120.911 194.08C122.211 193.993 123.121 193.95 123.641 193.95C125.851 193.95 127.519 194.362 128.646 195.185C129.773 196.008 130.336 197.482 130.336 199.605C130.336 200.428 129.816 203.787 128.776 209.68C127.736 215.53 127.216 220.232 127.216 223.785C127.216 227.295 127.888 230.415 129.231 233.145C125.981 232.582 123.598 231.39 122.081 229.57C120.564 227.707 119.806 225.042 119.806 221.575C119.806 220.968 119.893 219.798 120.066 218.065C118.896 222.182 116.816 225.497 113.826 228.01C110.836 230.523 107.889 231.78 104.986 231.78C102.126 231.78 99.8076 230.718 98.0309 228.595C96.2976 226.428 95.4309 223.373 95.4309 219.43C95.4309 215.487 96.1243 211.673 97.5109 207.99C98.9409 204.263 101.064 201.122 103.881 198.565C106.698 195.965 109.839 194.665 113.306 194.665C115.299 194.665 117.336 195.142 119.416 196.095C115.039 197.655 111.551 200.732 108.951 205.325C106.351 209.875 105.051 214.338 105.051 218.715ZM139.746 229.375C139.226 228.508 138.901 227.685 138.771 226.905C138.641 226.082 138.576 224.825 138.576 223.135C138.576 221.445 139.291 214.793 140.721 203.18C142.194 191.567 142.931 183.593 142.931 179.26C142.931 174.927 142.671 172.11 142.151 170.81C145.401 171.677 147.611 172.998 148.781 174.775C149.994 176.508 150.601 178.978 150.601 182.185C150.601 184.092 149.972 190.288 148.716 200.775C147.459 211.262 146.831 219.712 146.831 226.125C146.831 227.512 146.917 229.462 147.091 231.975C143.147 231.802 140.699 230.935 139.746 229.375ZM189.205 209.875C190.765 204.242 192.628 200.103 194.795 197.46C197.005 194.773 199.041 193.43 200.905 193.43C202.811 193.43 204.241 194.145 205.195 195.575C206.148 196.962 206.625 198.782 206.625 201.035C206.625 203.245 205.953 205.282 204.61 207.145C203.31 209.008 201.511 209.94 199.215 209.94C198.608 209.94 197.893 209.767 197.07 209.42C198.413 207.73 199.085 205.693 199.085 203.31C199.085 201.923 198.521 201.23 197.395 201.23C196.571 201.23 195.683 201.815 194.73 202.985C193.776 204.112 192.866 205.693 192 207.73C191.133 209.723 190.396 212.302 189.79 215.465C189.226 218.585 188.945 221.922 188.945 225.475C188.945 225.908 189.053 227.75 189.27 231C187.883 231.087 186.995 231.13 186.605 231.13C184.135 231.13 182.358 230.697 181.275 229.83C180.191 228.963 179.65 227.533 179.65 225.54C179.65 224.673 180.105 221.337 181.015 215.53C181.925 209.723 182.38 205.108 182.38 201.685C182.38 198.218 182.011 195.033 181.275 192.13C184.438 193.127 186.648 194.557 187.905 196.42C189.161 198.24 189.79 200.385 189.79 202.855C189.79 205.282 189.595 207.622 189.205 209.875ZM224.103 215.01C222.023 215.01 219.986 214.772 217.993 214.295C217.949 214.728 217.928 215.4 217.928 216.31C217.928 219.907 218.599 222.615 219.943 224.435C221.286 226.255 222.889 227.165 224.753 227.165C226.616 227.165 228.393 226.602 230.083 225.475C231.773 224.348 233.246 222.788 234.503 220.795C236.063 221.142 236.843 221.943 236.843 223.2C233.029 229.05 228.111 231.975 222.088 231.975C218.448 231.975 215.263 230.588 212.533 227.815C209.803 224.998 208.438 221.098 208.438 216.115C208.438 212.388 209.153 208.857 210.583 205.52C212.013 202.14 214.288 199.302 217.408 197.005C220.528 194.665 223.973 193.495 227.743 193.495C231.556 193.495 234.351 194.362 236.128 196.095C237.904 197.828 238.793 200.103 238.793 202.92C238.793 206.993 237.363 210.027 234.503 212.02C231.686 214.013 228.219 215.01 224.103 215.01ZM226.833 197.525C224.623 197.525 222.759 198.89 221.243 201.62C219.726 204.35 218.729 207.665 218.253 211.565H219.228C222.998 211.565 225.771 210.59 227.548 208.64C229.368 206.69 230.278 204.35 230.278 201.62C230.278 200.493 229.974 199.54 229.368 198.76C228.804 197.937 227.959 197.525 226.833 197.525ZM260.02 197.33C258.806 197.33 257.723 197.742 256.77 198.565C255.816 199.345 255.34 200.472 255.34 201.945C255.34 203.418 255.838 204.805 256.835 206.105C257.875 207.405 259.131 208.553 260.605 209.55C262.078 210.503 263.551 211.5 265.025 212.54C266.541 213.537 267.863 214.793 268.99 216.31C270.116 217.783 270.745 219.43 270.875 221.25C270.875 224.37 269.531 226.992 266.845 229.115C264.158 231.238 260.821 232.3 256.835 232.3C252.848 232.3 249.706 231.498 247.41 229.895C245.156 228.292 244.03 226.45 244.03 224.37C244.03 222.29 244.658 220.622 245.915 219.365C247.215 218.065 248.818 217.415 250.725 217.415C251.721 217.415 252.653 217.588 253.52 217.935C252.133 219.408 251.44 220.968 251.44 222.615C251.44 224.262 251.895 225.583 252.805 226.58C253.715 227.577 254.95 228.075 256.51 228.075C258.07 228.075 259.37 227.685 260.41 226.905C261.493 226.082 262.035 225.042 262.035 223.785C262.035 222.485 261.666 221.337 260.93 220.34C260.193 219.343 259.261 218.477 258.135 217.74C257.051 216.96 255.86 216.093 254.56 215.14C253.26 214.187 252.046 213.233 250.92 212.28C249.836 211.283 248.926 210.048 248.19 208.575C247.453 207.058 247.085 205.412 247.085 203.635C247.085 200.558 248.341 198.045 250.855 196.095C253.411 194.102 256.575 193.105 260.345 193.105C264.158 193.105 266.931 193.842 268.665 195.315C270.441 196.788 271.33 198.522 271.33 200.515C271.33 202.465 270.701 204.133 269.445 205.52C268.231 206.907 266.65 207.6 264.7 207.6C263.746 207.6 262.663 207.405 261.45 207.015C262.403 206.192 263.14 205.26 263.66 204.22C264.18 203.137 264.44 202.075 264.44 201.035C264.44 199.995 264.006 199.128 263.14 198.435C262.273 197.698 261.233 197.33 260.02 197.33ZM290.762 208.575C290.068 212.432 289.527 215.855 289.137 218.845C288.747 221.835 288.552 224.89 288.552 228.01C288.552 231.13 288.855 233.362 289.462 234.705C286.125 233.838 283.828 232.517 282.572 230.74C281.315 228.92 280.687 226.363 280.687 223.07C280.687 220.167 281.142 216.202 282.052 211.175C282.962 206.105 283.547 202.682 283.807 200.905C281.553 201.295 279.148 202.053 276.592 203.18C276.505 202.227 276.462 201.512 276.462 201.035C276.462 198.738 277.155 197.178 278.542 196.355C279.928 195.488 281.922 195.033 284.522 194.99C284.825 191.74 284.977 189.4 284.977 187.97C284.977 186.54 284.955 185.348 284.912 184.395C284.912 183.442 284.912 182.727 284.912 182.25C287.772 182.553 289.852 183.42 291.152 184.85C292.452 186.237 293.102 188.23 293.102 190.83C293.102 191.87 292.993 193.322 292.777 195.185C296.417 195.098 299.082 194.383 300.772 193.04C300.858 193.907 300.902 194.557 300.902 194.99C300.902 197.07 300.533 198.522 299.797 199.345C299.06 200.125 297.825 200.515 296.092 200.515C294.358 200.515 293.037 200.493 292.127 200.45C291.91 202.01 291.455 204.718 290.762 208.575ZM311.35 218.715C311.35 220.752 311.718 222.42 312.455 223.72C313.235 224.977 314.318 225.605 315.705 225.605C317.741 225.605 319.67 224.413 321.49 222.03C323.353 219.647 324.826 216.592 325.91 212.865C327.036 209.138 327.6 205.607 327.6 202.27C327.6 198.89 327.47 196.16 327.21 194.08C328.51 193.993 329.42 193.95 329.94 193.95C332.15 193.95 333.818 194.362 334.945 195.185C336.071 196.008 336.635 197.482 336.635 199.605C336.635 200.428 336.115 203.787 335.075 209.68C334.035 215.53 333.515 220.232 333.515 223.785C333.515 227.295 334.186 230.415 335.53 233.145C332.28 232.582 329.896 231.39 328.38 229.57C326.863 227.707 326.105 225.042 326.105 221.575C326.105 220.968 326.191 219.798 326.365 218.065C325.195 222.182 323.115 225.497 320.125 228.01C317.135 230.523 314.188 231.78 311.285 231.78C308.425 231.78 306.106 230.718 304.33 228.595C302.596 226.428 301.73 223.373 301.73 219.43C301.73 215.487 302.423 211.673 303.81 207.99C305.24 204.263 307.363 201.122 310.18 198.565C312.996 195.965 316.138 194.665 319.605 194.665C321.598 194.665 323.635 195.142 325.715 196.095C321.338 197.655 317.85 200.732 315.25 205.325C312.65 209.875 311.35 214.338 311.35 218.715ZM368.795 193.365C371.048 193.365 372.76 193.777 373.93 194.6C375.1 195.423 375.685 196.94 375.685 199.15C375.685 199.843 375.273 202.898 374.45 208.315C373.626 213.688 373.215 218.303 373.215 222.16C373.215 226.017 373.626 229.418 374.45 232.365C371.2 231.325 368.946 229.852 367.69 227.945C366.433 226.038 365.805 223.677 365.805 220.86C365.805 219.777 366.043 217.328 366.52 213.515C365.176 218.455 363.118 222.615 360.345 225.995C357.615 229.332 355.036 231 352.61 231C347.626 231 345.135 227.403 345.135 220.21C345.135 217.827 345.481 214.512 346.175 210.265C346.911 205.975 347.28 202.725 347.28 200.515C347.28 198.305 346.976 196.073 346.37 193.82C349.966 193.82 352.566 194.297 354.17 195.25C355.816 196.16 356.64 198.002 356.64 200.775C356.64 202.248 356.185 205.173 355.275 209.55C354.365 213.927 353.91 217.22 353.91 219.43C353.91 222.637 354.776 224.24 356.51 224.24C357.376 224.24 358.373 223.655 359.5 222.485C360.626 221.272 361.71 219.69 362.75 217.74C363.79 215.747 364.656 213.277 365.35 210.33C366.086 207.34 366.455 204.328 366.455 201.295C366.455 198.218 366.325 195.618 366.065 193.495C367.365 193.408 368.275 193.365 368.795 193.365ZM394.043 209.875C395.603 204.242 397.467 200.103 399.633 197.46C401.843 194.773 403.88 193.43 405.743 193.43C407.65 193.43 409.08 194.145 410.033 195.575C410.987 196.962 411.463 198.782 411.463 201.035C411.463 203.245 410.792 205.282 409.448 207.145C408.148 209.008 406.35 209.94 404.053 209.94C403.447 209.94 402.732 209.767 401.908 209.42C403.252 207.73 403.923 205.693 403.923 203.31C403.923 201.923 403.36 201.23 402.233 201.23C401.41 201.23 400.522 201.815 399.568 202.985C398.615 204.112 397.705 205.693 396.838 207.73C395.972 209.723 395.235 212.302 394.628 215.465C394.065 218.585 393.783 221.922 393.783 225.475C393.783 225.908 393.892 227.75 394.108 231C392.722 231.087 391.833 231.13 391.443 231.13C388.973 231.13 387.197 230.697 386.113 229.83C385.03 228.963 384.488 227.533 384.488 225.54C384.488 224.673 384.943 221.337 385.853 215.53C386.763 209.723 387.218 205.108 387.218 201.685C387.218 198.218 386.85 195.033 386.113 192.13C389.277 193.127 391.487 194.557 392.743 196.42C394 198.24 394.628 200.385 394.628 202.855C394.628 205.282 394.433 207.622 394.043 209.875ZM422.116 218.715C422.116 220.752 422.485 222.42 423.221 223.72C424.001 224.977 425.085 225.605 426.471 225.605C428.508 225.605 430.436 224.413 432.256 222.03C434.12 219.647 435.593 216.592 436.676 212.865C437.803 209.138 438.366 205.607 438.366 202.27C438.366 198.89 438.236 196.16 437.976 194.08C439.276 193.993 440.186 193.95 440.706 193.95C442.916 193.95 444.585 194.362 445.711 195.185C446.838 196.008 447.401 197.482 447.401 199.605C447.401 200.428 446.881 203.787 445.841 209.68C444.801 215.53 444.281 220.232 444.281 223.785C444.281 227.295 444.953 230.415 446.296 233.145C443.046 232.582 440.663 231.39 439.146 229.57C437.63 227.707 436.871 225.042 436.871 221.575C436.871 220.968 436.958 219.798 437.131 218.065C435.961 222.182 433.881 225.497 430.891 228.01C427.901 230.523 424.955 231.78 422.051 231.78C419.191 231.78 416.873 230.718 415.096 228.595C413.363 226.428 412.496 223.373 412.496 219.43C412.496 215.487 413.19 211.673 414.576 207.99C416.006 204.263 418.13 201.122 420.946 198.565C423.763 195.965 426.905 194.665 430.371 194.665C432.365 194.665 434.401 195.142 436.481 196.095C432.105 197.655 428.616 200.732 426.016 205.325C423.416 209.875 422.116 214.338 422.116 218.715ZM480.406 193.495C482.963 193.495 484.783 194.297 485.866 195.9C486.993 197.46 487.556 199.605 487.556 202.335C487.556 205.022 487.123 208.813 486.256 213.71C485.433 218.607 485.021 222.182 485.021 224.435C485.021 226.645 485.303 228.27 485.866 229.31C486.429 230.307 487.383 231.173 488.726 231.91C488.163 231.953 487.361 231.975 486.321 231.975C482.681 231.975 480.081 231.412 478.521 230.285C477.004 229.158 476.246 227.187 476.246 224.37C476.246 222.767 476.679 219.647 477.546 215.01C478.413 210.33 478.846 206.842 478.846 204.545C478.846 201.685 477.979 200.255 476.246 200.255C475.249 200.255 474.123 200.84 472.866 202.01C471.609 203.18 470.396 204.783 469.226 206.82C468.056 208.813 467.081 211.392 466.301 214.555C465.521 217.718 465.131 220.882 465.131 224.045C465.131 227.165 465.261 229.483 465.521 231C464.134 231.087 463.224 231.13 462.791 231.13C460.321 231.13 458.544 230.697 457.461 229.83C456.378 228.963 455.836 227.533 455.836 225.54C455.836 224.673 456.291 221.337 457.201 215.53C458.111 209.723 458.566 205.108 458.566 201.685C458.566 198.218 458.198 195.033 457.461 192.13C460.624 193.127 462.834 194.557 464.091 196.42C465.348 198.24 465.976 200.342 465.976 202.725C465.976 205.065 465.716 207.795 465.196 210.915C466.626 206.062 468.879 201.945 471.956 198.565C475.033 195.185 477.849 193.495 480.406 193.495ZM508.55 208.575C507.856 212.432 507.315 215.855 506.925 218.845C506.535 221.835 506.34 224.89 506.34 228.01C506.34 231.13 506.643 233.362 507.25 234.705C503.913 233.838 501.616 232.517 500.36 230.74C499.103 228.92 498.475 226.363 498.475 223.07C498.475 220.167 498.93 216.202 499.84 211.175C500.75 206.105 501.335 202.682 501.595 200.905C499.341 201.295 496.936 202.053 494.38 203.18C494.293 202.227 494.25 201.512 494.25 201.035C494.25 198.738 494.943 197.178 496.33 196.355C497.716 195.488 499.71 195.033 502.31 194.99C502.613 191.74 502.765 189.4 502.765 187.97C502.765 186.54 502.743 185.348 502.7 184.395C502.7 183.442 502.7 182.727 502.7 182.25C505.56 182.553 507.64 183.42 508.94 184.85C510.24 186.237 510.89 188.23 510.89 190.83C510.89 191.87 510.781 193.322 510.565 195.185C514.205 195.098 516.87 194.383 518.56 193.04C518.646 193.907 518.69 194.557 518.69 194.99C518.69 197.07 518.321 198.522 517.585 199.345C516.848 200.125 515.613 200.515 513.88 200.515C512.146 200.515 510.825 200.493 509.915 200.45C509.698 202.01 509.243 204.718 508.55 208.575ZM535.508 197.33C534.295 197.33 533.211 197.742 532.258 198.565C531.305 199.345 530.828 200.472 530.828 201.945C530.828 203.418 531.326 204.805 532.323 206.105C533.363 207.405 534.62 208.553 536.093 209.55C537.566 210.503 539.04 211.5 540.513 212.54C542.03 213.537 543.351 214.793 544.478 216.31C545.605 217.783 546.233 219.43 546.363 221.25C546.363 224.37 545.02 226.992 542.333 229.115C539.646 231.238 536.31 232.3 532.323 232.3C528.336 232.3 525.195 231.498 522.898 229.895C520.645 228.292 519.518 226.45 519.518 224.37C519.518 222.29 520.146 220.622 521.403 219.365C522.703 218.065 524.306 217.415 526.213 217.415C527.21 217.415 528.141 217.588 529.008 217.935C527.621 219.408 526.928 220.968 526.928 222.615C526.928 224.262 527.383 225.583 528.293 226.58C529.203 227.577 530.438 228.075 531.998 228.075C533.558 228.075 534.858 227.685 535.898 226.905C536.981 226.082 537.523 225.042 537.523 223.785C537.523 222.485 537.155 221.337 536.418 220.34C535.681 219.343 534.75 218.477 533.623 217.74C532.54 216.96 531.348 216.093 530.048 215.14C528.748 214.187 527.535 213.233 526.408 212.28C525.325 211.283 524.415 210.048 523.678 208.575C522.941 207.058 522.573 205.412 522.573 203.635C522.573 200.558 523.83 198.045 526.343 196.095C528.9 194.102 532.063 193.105 535.833 193.105C539.646 193.105 542.42 193.842 544.153 195.315C545.93 196.788 546.818 198.522 546.818 200.515C546.818 202.465 546.19 204.133 544.933 205.52C543.72 206.907 542.138 207.6 540.188 207.6C539.235 207.6 538.151 207.405 536.938 207.015C537.891 206.192 538.628 205.26 539.148 204.22C539.668 203.137 539.928 202.075 539.928 201.035C539.928 199.995 539.495 199.128 538.628 198.435C537.761 197.698 536.721 197.33 535.508 197.33Z" fill="#396C03"/>
<path d="M556.435 231.715C553.228 231.715 551.625 230.372 551.625 227.685C551.625 226.818 552.015 224.977 552.795 222.16C554.311 221.727 555.85 221.51 557.41 221.51C560.616 221.51 562.22 222.853 562.22 225.54C562.22 226.407 561.83 228.248 561.05 231.065C559.533 231.498 557.995 231.715 556.435 231.715Z" fill="#FF8B00"/>
</svg>
