<svg width="163" height="94" viewBox="0 0 163 94" fill="none" xmlns="http://www.w3.org/2000/svg">
<g clip-path="url(#clip0_1371_38)">
<path d="M161.341 36.861C160.856 38.63 160.518 40.4057 159.865 42.1638C154.647 56.1109 133.699 67.1489 108.577 69.2349C78.3799 71.7446 50.5371 61.691 42.3605 45.3244C34.6836 29.9317 48.3424 12.8546 74.1935 5.55079C80.7145 3.67537 87.7553 2.46843 94.9789 1.98778C95.2801 1.95285 95.5749 1.90072 95.8586 1.8322L104.31 1.67103C106.362 1.80364 108.418 1.915 110.467 2.06885C134.299 3.84703 154.105 13.8727 159.576 26.9666C160.308 28.7148 160.706 30.5093 161.254 32.2821L161.341 36.861ZM95.8799 18.7449L96.2544 38.3822L131.201 37.7158L131.1 32.4501L105.437 32.9395L105.163 18.5678L95.8799 18.7449Z" fill="#396C03"/>
<path d="M48.4782 70.2116L20.1594 86.9706L13.6207 83.444L41.8681 66.6722L48.4782 70.2116Z" fill="#396C03"/>
<path d="M66.9488 72.2755L73.3678 75.6632L48.9173 90.1652L42.4849 86.7284L66.9488 72.2755Z" fill="#396C03"/>
<path d="M12.8074 70.8399L6.46844 67.4766C14.6146 62.6505 22.7801 57.817 30.965 52.976L37.3043 56.3582L12.8074 70.8399Z" fill="#396C03"/>
<path d="M8.14323 53.5171L1.60094 50.0211L23.8847 36.8473C26.0866 38.024 28.3053 39.205 30.3846 40.3134L8.14323 53.5171Z" fill="#396C03"/>
<path d="M80.141 92.1485L73.5951 88.6832L95.9785 75.4674L102.428 78.9228L80.141 92.1485Z" fill="#396C03"/>
</g>
<defs>
<clipPath id="clip0_1371_38">
<rect width="159.962" height="90" fill="white" transform="translate(0.716553 3.64648) rotate(-1.09247)"/>
</clipPath>
</defs>
</svg>
