<svg width="43" height="40" viewBox="0 0 43 40" fill="none" xmlns="http://www.w3.org/2000/svg">
<path fill-rule="evenodd" clip-rule="evenodd" d="M11.4229 3.63721C13.145 3.50881 14.7798 2.87628 16.0945 1.82968C17.5794 0.648639 19.4662 0 21.4167 0C23.3672 0 25.2539 0.648639 26.7388 1.82968C28.0535 2.87628 29.6883 3.50881 31.4104 3.63721C33.3551 3.78236 35.181 4.56964 36.5605 5.85792C37.94 7.14619 38.7831 8.85123 38.9385 10.6673C39.075 12.2749 39.7523 13.8024 40.8741 15.0299C42.1388 16.4166 42.8333 18.1785 42.8333 20C42.8333 21.8215 42.1388 23.5834 40.8741 24.9701C39.7533 26.1978 39.076 27.7245 38.9385 29.3327C38.7831 31.1488 37.94 32.8538 36.5605 34.1421C35.181 35.4304 33.3551 36.2176 31.4104 36.3628C29.6883 36.4912 28.0535 37.1237 26.7388 38.1703C25.2539 39.3514 23.3672 40 21.4167 40C19.4662 40 17.5794 39.3514 16.0945 38.1703C14.7798 37.1237 13.145 36.4912 11.4229 36.3628C9.47819 36.2176 7.65238 35.4304 6.27285 34.1421C4.89332 32.8538 4.05027 31.1488 3.89485 29.3327C3.75736 27.7245 3.08001 26.1978 1.95928 24.9701C0.694584 23.5834 0 21.8215 0 20C0 18.1785 0.694584 16.4166 1.95928 15.0299C3.08001 13.8022 3.75736 12.2755 3.89485 10.6673C4.05027 8.85123 4.89332 7.14619 6.27285 5.85792C7.65238 4.56964 9.47819 3.78236 11.4229 3.63721ZM31.3408 16.7674C31.8285 16.2959 32.0983 15.6644 32.0922 15.0089C32.0861 14.3534 31.8045 13.7264 31.3082 13.2628C30.8118 12.7993 30.1404 12.5364 29.4384 12.5307C28.7365 12.525 28.0602 12.777 27.5553 13.2324L18.7395 21.465L15.278 18.2325C14.7731 17.7771 14.0968 17.5251 13.3949 17.5308C12.693 17.5365 12.0215 17.7994 11.5252 18.2629C11.0288 18.7265 10.7472 19.3535 10.7411 20.009C10.735 20.6645 11.0049 21.296 11.4925 21.7675L16.8468 26.7676C17.3488 27.2363 18.0297 27.4996 18.7395 27.4996C19.4494 27.4996 20.1302 27.2363 20.6323 26.7676L31.3408 16.7674Z" fill="#FF8B00"/>
</svg>
